<svg width="126" height="355" viewBox="0 0 126 355" fill="none" xmlns="http://www.w3.org/2000/svg">
<g clip-path="url(#clip0_1_5)">
<path d="M0.0628651 278.717C-0.762611 303.831 6.84095 315.691 7.78941 317.068C7.85734 317.167 7.94476 317.23 8.05556 317.278L47.8652 334.415L79.277 343.231C79.7625 343.368 80.2252 342.953 80.1423 342.462C76.3062 319.691 79.8056 301.779 90.2362 264.563C100.829 226.768 114.836 194.76 114.836 135.656C114.836 80.8631 49.9366 11.0744 40.4691 1.18507C40.0437 0.740974 39.3387 1.08836 39.3469 1.69917C39.5452 16.4222 39.392 29.5699 39.3389 33.3406C39.3319 33.84 38.795 34.1533 38.3438 33.9245L9.70867 19.4259C9.20131 19.1695 8.42937 19.9703 8.72964 20.4489C17.7915 34.8736 63.1164 115.15 24.3847 194.76C6.44559 231.633 0.704902 259.184 0.0628651 278.717ZM17.8097 293.563C17.9689 290.616 21.5769 287.423 30.8005 287.097C33.1708 287.148 35.7043 288.313 36.6867 287.942C37.0735 287.829 40.6376 278.321 40.6376 278.321C40.6376 278.321 32.65 274.938 29.003 272.855C19.0958 268.959 24.6934 260.348 30.8246 262.864C40.4056 264.533 58.5243 270.584 62.8636 271.883C71.3013 274.8 72.6726 285.349 61.2506 281.731C56.8471 280.782 51.5245 279.855 51.5245 279.855L47.044 291.374C47.044 291.374 51.5783 293.612 55.7576 295.788C63.3262 299.458 66.2989 312.276 48.0819 304.76C36.66 301.142 27.8207 299.42 22.6754 298.523C19.6479 297.995 17.6859 295.854 17.8097 293.563ZM28.7649 239.446C28.771 239.283 28.7841 239.124 28.801 238.968C28.8917 237.888 31.1194 236.42 33.2601 235.297C47.3582 231.62 73.2878 238.209 75.0292 239.374C81.6017 243.384 80.3589 250.421 73.2584 247.748C68.9449 246.5 65.0236 245.162 65.0236 245.162L63.9911 254.27C78.099 261.428 72.1922 267.863 66.0976 264.154C58.9578 260.187 43.3268 251.736 35.4455 247.769C29.8937 245.021 28.6733 241.889 28.7649 239.446ZM39.7214 209.769C39.5222 202.389 46.4748 200.287 49.6601 201.401C51.5338 202.038 53.6618 204.546 49.0275 208.12C45.9999 214.076 58.3729 217.812 64.6036 219.509C68.3085 220.23 75.1976 220.821 77.9114 217.503C79.5309 215.545 79.234 213.123 79.3265 211.336C79.5052 209.933 85.0523 207.123 87.5559 215.329C87.3765 216.733 87.3539 223.962 80.2801 226.942C72.9433 230.221 62.1788 228.143 62.1788 228.143C62.1788 228.143 39.9519 223.818 39.8605 211.315C39.7804 210.776 39.7347 210.261 39.7214 209.769ZM40.4022 62.26C40.4075 61.2531 40.5693 60.3153 40.8904 59.4391C42.1694 57.3874 45.6843 56.0609 48.7105 56.6143C51.3416 57.2534 53.4893 58.32 53.4893 58.32C53.8521 54.7727 57.4437 52.176 62.1454 51.5011C66.8471 50.8262 71.2722 55.1915 74.0114 63.3093C74.7927 66.044 74.7843 68.9487 73.8188 69.0776C71.9308 69.1646 49.4394 76.0573 49.4394 76.0573C48.078 76.2726 46.5847 76.9989 44.5336 73.4104C41.7826 68.9252 40.3863 65.2808 40.4022 62.26ZM40.667 241.646C40.6425 241.782 40.6789 241.936 40.7847 242.112L53.5789 250.78L55.1344 241.801C55.1344 241.801 41.035 239.61 40.667 241.646ZM46.5652 190.293C46.523 187.653 50.0419 184.485 54.3693 184.92C60.3194 184.747 68.1747 186.478 68.1747 186.478C68.1747 186.478 66.1791 185.633 59.9479 178.354C53.7175 171.075 56.373 169.379 60.1913 170.308C63.8371 171.196 73.2303 180.505 73.2303 180.505C73.7555 179.193 77.7991 177.835 77.7991 177.835C83.3205 175.757 87.6671 174.654 90.8822 174.356C100.262 174.478 97.5431 182.821 92.764 183.458C87.8116 184.054 76.2516 186.643 76.2516 186.643L76.59 189.606C76.59 189.606 82.5765 191.424 84.9171 193.074C95.1443 199.885 91.6948 206.069 85.8413 203.024C85.0168 202.643 79.2088 199.428 76.0416 198.118C63.0749 192.62 55.9006 195.377 49.089 193.178C47.3402 192.584 46.5844 191.493 46.5652 190.293ZM46.5652 64.4244C46.6638 66.2703 47.7507 68.6953 48.534 70.9309L55.6533 67.9347C55.6533 67.9347 52.6914 60.6713 48.7386 61.5284C47.0096 61.9031 46.4886 62.9887 46.5652 64.4244ZM49.3044 85.9014C49.2929 84.3301 51.1366 82.4093 54.3841 81.2404C60.8172 79.5086 71.2097 77.7043 74.9048 78.6093C78.4232 79.4718 82.8673 80.3771 83.9541 84.872C84.215 86.0389 85.6355 95.7643 74.8393 99.1847C63.5152 102.477 60.2554 103.515 56.6002 103.906C52.9451 104.298 50.7109 100.625 54.6355 98.461C57.6778 96.8176 70.8913 94.9081 76.4469 92.2247C78.6964 90.7534 79.102 87.7269 77.0381 86.3008C73.9175 84.617 66.1222 85.8323 59.8677 86.8729C56.8717 87.6099 54.5817 88.459 52.9088 88.4165C50.4444 88.1342 49.3132 87.1237 49.3044 85.9014ZM56.1535 122.489C56.2185 121.053 58.178 119.472 63.4775 118.624C70.7827 116.39 84.9078 116.958 86.2157 115.886C87.5237 114.814 85.6987 106.837 84.9612 104.676C84.2237 102.517 85.1919 98.5355 87.3874 99.4351C89.6273 100.163 89.8395 102.223 90.1024 102.651C90.3647 103.081 95.789 121.114 92.1782 121.783C88.5666 122.453 86.9049 122.495 80.7549 123.17C74.6042 123.845 66.1816 125.486 61.1249 125.532C58.4389 125.556 56.0799 124.116 56.1535 122.489ZM58.2065 139.891C58.2395 137.354 59.7466 135.099 62.4744 133.196C65.9429 131.482 69.847 132.421 66.325 137.217C66.0577 137.517 65.0302 139.271 66.0896 140.983C66.3546 141.411 66.7078 142.223 67.9928 143.079C72.3336 145.944 80.1047 145.084 84.1052 143.498C90.0169 141.097 91.714 138.23 90.2616 134.421C88.8085 130.613 89.6067 130.441 89.7868 129.757C90.0121 128.901 96.8115 126.715 98.3359 136.001C99.8595 145.288 92.2061 150.726 78.8864 151.162C69.963 151.381 64.0659 149.416 60.9243 146.292C59.0476 144.009 58.1809 141.865 58.2065 139.891ZM58.6439 60.4343C58.7196 63.4511 61.1423 66.9066 61.1423 66.9066C61.1423 66.9066 69.8818 64.8509 69.4867 64.9359C68.9163 64.9798 66.7671 54.3466 61.1423 56.6143C59.209 57.3942 58.6042 58.8541 58.6439 60.4343Z" fill="#E3DAB7"/>
<path d="M4.77026 317.02C4.77026 317.02 3.95359 316.321 4.12376 314.999C4.29393 313.676 5.84193 314.002 6.85051 314.501C7.85913 314.999 33.957 327.543 63.3947 336.622C92.8326 345.7 124.288 345.006 126 345.006V354.993C122.918 355.129 93.3023 353.237 63.3947 343.242C33.4868 333.247 5.80972 318.345 4.77026 317.02Z" fill="#E3DAB7"/>
</g>
<defs>
<clipPath id="clip0_1_5">
<rect width="355" height="126" fill="white" transform="matrix(0 -1 1 0 0 355)"/>
</clipPath>
</defs>
</svg>
