<svg width="570" height="570" viewBox="0 0 570 570" fill="none" xmlns="http://www.w3.org/2000/svg">
<path d="M126.491 434.467C124.453 434.178 119.557 432.991 117.004 432.365C115.935 428.559 113.603 425.23 110.391 422.926C107.205 420.344 103.343 418.734 99.2667 418.287C96.6788 417.944 94.0465 418.23 91.5929 419.122C89.1394 420.013 86.9371 421.483 85.1729 423.407C82.9723 425.96 81.3173 428.936 80.3097 432.152C79.3021 435.368 78.9632 438.756 79.3139 442.108C80.0503 445.089 81.5052 447.845 83.5516 450.134C85.815 453.056 85.8952 453.537 85.1568 454.163C82.4601 456.651 72.9091 455.544 69.3615 452.959C62.0578 447.63 57.4348 446.025 54.3849 447.759C50.4681 449.942 50.741 456.94 51.4634 464.533C53.0686 482.351 70.6136 493.668 85.9916 493.941H87.051C106.169 493.941 120.969 484.566 121.675 471.885C122.141 463.281 117.518 458.401 114.147 454.854C112.757 453.644 111.659 452.135 110.937 450.439C110.852 450.025 110.852 449.598 110.938 449.184C111.023 448.77 111.192 448.378 111.434 448.031C111.826 448.169 112.229 448.271 112.638 448.336C113.508 448.48 114.389 448.555 115.271 448.561C118.112 448.453 120.89 447.696 123.394 446.35C125.898 445.003 128.061 443.102 129.718 440.792C130.096 440.218 130.322 439.558 130.375 438.873C130.429 438.188 130.307 437.501 130.023 436.875C129.691 436.204 129.192 435.629 128.573 435.208C127.954 434.786 127.237 434.531 126.491 434.467ZM126.138 437.678C121.088 438.722 115.929 439.148 110.776 438.946C111.739 436.811 113.441 435.126 114.597 435.126H114.693C115.688 435.366 123.2 437.26 126.042 437.662L126.138 437.678ZM111.691 457.085C114.998 460.568 118.738 464.517 118.337 471.74C117.727 482.72 103.488 491.099 85.9274 490.746C68.0131 490.409 55.7012 476.733 54.6738 464.308C54.3207 460.311 53.5823 451.964 56.0061 450.6C56.9853 450.054 59.7784 449.958 67.5155 455.608C71.8015 458.819 83.2466 460.424 87.3881 456.571C90.4059 453.778 88.0141 450.696 86.0879 448.224C84.374 446.333 83.1359 444.06 82.4761 441.595C82.2292 438.736 82.5487 435.856 83.4164 433.121C84.284 430.386 85.6828 427.849 87.5326 425.655C88.9624 424.082 90.757 422.884 92.7583 422.168C94.7597 421.451 96.9065 421.237 99.0099 421.545C102.479 421.925 105.763 423.302 108.465 425.51C110.743 427.204 112.528 429.476 113.633 432.092C110.567 432.814 107.822 436.538 107.1 440.198C107.091 440.321 107.091 440.444 107.1 440.567C106.88 441.604 106.911 442.677 107.19 443.699C107.469 444.721 107.989 445.662 108.705 446.442C108.228 447.118 107.889 447.881 107.707 448.688C107.526 449.495 107.505 450.33 107.646 451.146C108.16 453.281 109.829 455.046 111.755 457.069L111.691 457.085ZM112.991 445.206C112.192 445.177 111.435 444.84 110.878 444.266C110.322 443.691 110.009 442.924 110.006 442.124C110.792 442.124 111.852 442.237 113.216 442.237C117.2 442.211 121.174 441.84 125.095 441.129C123.54 442.693 121.643 443.874 119.554 444.579C117.464 445.284 115.24 445.493 113.055 445.19L112.991 445.206Z" fill="#E3DAB7"/>
<path d="M103.633 433.809C104.963 433.809 106.041 432.731 106.041 431.401C106.041 430.072 104.963 428.994 103.633 428.994C102.303 428.994 101.225 430.072 101.225 431.401C101.225 432.731 102.303 433.809 103.633 433.809Z" fill="#E3DAB7"/>
<path d="M102.557 465.593C102.148 465.66 101.781 465.883 101.532 466.215C101.284 466.547 101.174 466.963 101.225 467.374C101.402 468.739 101.294 470.126 100.907 471.447C100.52 472.768 99.8633 473.994 98.9778 475.047C96.7144 477.471 93.1027 478.755 88.1265 478.595C84.651 478.498 81.2646 477.473 78.3181 475.627C75.3716 473.781 72.9721 471.181 71.3681 468.097C75.8723 466.499 80.7592 466.325 85.3655 467.599C85.566 467.698 85.7849 467.755 86.0084 467.764C86.2319 467.774 86.455 467.737 86.6633 467.656C86.8716 467.574 87.0606 467.45 87.2181 467.291C87.3756 467.132 87.4981 466.942 87.5779 466.733C87.6577 466.524 87.6929 466.301 87.6813 466.077C87.6697 465.854 87.6115 465.636 87.5105 465.436C87.4095 465.236 87.2679 465.06 87.0948 464.918C86.9217 464.777 86.7209 464.673 86.5052 464.613C86.2002 464.485 78.7681 461.724 68.5429 465.689C68.3434 465.765 68.161 465.88 68.0066 466.028C67.8522 466.175 67.7288 466.352 67.6436 466.548C67.5583 466.744 67.5131 466.955 67.5104 467.168C67.5077 467.382 67.5476 467.594 67.6279 467.792C67.8687 468.37 73.4548 481.645 88.0783 481.805H88.4636C94.1942 481.805 98.5122 480.2 101.305 477.182C102.493 475.791 103.378 474.167 103.903 472.415C104.428 470.663 104.582 468.82 104.355 467.005C104.331 466.794 104.266 466.589 104.162 466.403C104.059 466.217 103.919 466.054 103.752 465.923C103.585 465.791 103.393 465.694 103.188 465.638C102.983 465.581 102.768 465.566 102.557 465.593Z" fill="#E3DAB7"/>
</svg>
