<svg width="809" height="809" viewBox="0 0 809 809" fill="none" xmlns="http://www.w3.org/2000/svg">
<path d="M353.938 2.03973C308.364 7.97235 268.049 20.2422 224.497 41.5459C123.642 91.0297 49.0793 179.885 15.7755 289.774C4.4495 326.853 0 359.753 0 404.382C0 471.799 12.0002 523.71 41.1242 583.037C101.53 706.139 219.104 790.006 354.747 806.86C377.129 809.557 431.871 809.557 454.254 806.86C563.738 793.242 662.841 735.533 729.448 646.408C771.651 590.048 798.348 523.98 806.978 454.136C809.674 431.754 809.674 377.011 806.978 354.629C792.146 234.762 724.594 128.244 621.851 62.3102C603.649 50.7145 566.165 31.8379 547.423 24.9614C515.737 13.3657 484.861 5.81506 453.04 1.90485C431.602 -0.656982 374.971 -0.656982 353.938 2.03973ZM470.838 6.4892C505.355 12.5567 509.535 13.905 524.097 24.6917C561.042 52.0629 587.873 93.3219 597.986 138.356C606.615 176.244 604.862 210.492 592.593 247.571C578.165 291.122 547.828 328.606 506.03 354.359C456.815 384.966 427.152 425.821 415.691 478.945C412.186 494.721 412.32 535.306 415.826 551.351C421.085 575.621 429.714 596.25 443.467 617.015C452.096 629.959 469.355 649.105 478.119 655.577C481.085 657.734 487.018 662.049 491.467 665.42C502.524 673.645 529.356 686.723 544.052 690.903C581.132 701.555 622.256 700.476 656.638 688.207C681.043 679.442 702.751 666.229 720.549 649.644C726.212 644.386 730.797 640.476 730.797 641.015C730.797 642.633 716.37 660.566 702.886 675.667C687.785 692.656 682.122 696.162 657.178 704.117C617.402 716.926 573.851 717.061 534.344 704.252C518.704 699.263 493.086 686.319 479.333 676.476C451.557 656.386 426.343 624.43 412.725 591.666C402.747 568.07 398.702 547.575 397.084 514.272C395.466 480.563 389.129 454.81 376.185 430.136C348.814 378.225 300.948 343.707 242.835 333.73C227.059 331.033 201.576 330.898 184.722 333.595C117.71 343.842 60.9447 391.573 39.1017 456.293C31.9555 477.462 30.3375 487.844 30.3375 514.272C30.3375 534.766 30.8768 540.699 33.4387 552.429C35.1915 560.115 36.2702 566.722 36.0005 567.126C35.0567 568.07 22.3823 534.901 18.3373 521.013C14.4272 507.665 14.1575 502.541 16.3148 487.17C22.652 441.057 47.3265 395.483 81.9787 365.685C110.024 341.55 139.013 327.258 174.744 319.977C188.902 317.145 195.913 316.471 212.363 316.471C248.633 316.471 273.712 322.943 312.139 342.359C350.971 361.91 367.016 365.955 405.848 365.955C431.602 365.82 434.433 365.55 447.377 362.18C482.434 352.876 507.782 338.719 532.861 314.314C561.311 286.808 578.974 252.83 586.12 212.245C588.682 197.548 587.873 162.491 584.503 146.446C577.491 112.333 561.581 82.1307 537.446 56.782C513.985 32.2424 487.557 16.1972 455.062 6.4892C443.602 3.11835 451.018 3.11835 470.838 6.4892ZM444.276 30.085C471.377 37.366 498.344 53.4112 517.76 73.5013C535.828 92.2432 547.154 110.985 555.379 135.525C567.513 172.199 563.873 218.043 545.671 254.043C537.985 269.549 530.839 279.392 518.03 292.74C481.49 330.629 430.388 347.483 377.803 338.988C359.87 336.022 351.915 333.19 322.926 318.898C308.903 311.887 293.667 305.01 289.217 303.527C229.082 283.167 167.328 286.943 113.26 314.044C84.0012 328.741 59.866 348.022 37.7533 374.584C29.6633 384.157 26.1577 387.663 25.7532 386.045C25.079 382.27 28.315 355.438 31.8207 336.292C46.2478 257.279 84.136 186.627 141.845 131.345C194.969 80.243 256.183 48.1527 328.319 33.1862C337.218 31.2985 350.297 29.1412 357.308 28.3322C364.32 27.5232 372.005 26.5793 374.163 26.3097C376.455 26.04 390.073 25.9052 404.5 26.1749C428.096 26.4445 432.141 26.8491 444.276 30.085ZM619.424 91.8387C698.437 149.008 749.404 222.357 772.056 311.752C794.303 399.798 783.786 494.316 742.527 575.486C729.853 600.565 720.28 614.588 705.853 628.88C679.425 655.307 647.065 670.274 608.368 674.184C572.772 677.824 529.76 666.094 502.524 645.33C445.894 602.183 423.646 533.418 444.95 467.35C453.175 441.866 465.04 422.989 486.074 402.36C497.805 390.764 504.681 385.236 517.895 377.146C553.356 355.168 578.705 329.954 598.121 297.19C615.11 268.336 624.009 240.155 627.649 203.75C631.155 170.042 627.514 141.592 615.514 106.67C612.278 97.2321 609.177 88.4679 608.773 87.1196C607.289 83.6139 608.907 84.288 619.424 91.8387ZM240.138 359.213C298.521 369.461 345.578 410.854 363.78 467.754C368.634 483.125 370.387 494.586 371.466 519.665C373.488 562.272 383.196 596.115 403.286 630.228C413.129 646.813 425.399 661.779 442.388 677.69C459.917 694.274 473.13 703.712 492.546 713.825C517.356 726.769 539.738 733.645 575.738 739.443L581.806 740.522L571.693 745.106C533.536 762.5 494.434 774.5 456.815 779.893C436.86 782.86 393.983 783.938 372.275 782.051C323.87 777.736 278.431 764.792 234.475 742.814C169.62 710.319 117.305 661.779 79.9562 599.891C63.5065 572.654 56.8997 551.081 55.6862 521.013C54.6075 491.62 60.2705 466.001 73.3493 441.192C100.99 389.281 153.036 357.73 211.823 357.326C221.396 357.191 233.801 358 240.138 359.213Z" fill="#E3DAB7"/>
<path d="M361.623 382.405C376.05 397.506 395.466 430.675 401.129 449.821C402.478 454.54 403.961 458.316 404.365 458.316C404.905 458.316 406.657 454.271 408.275 449.147C415.961 427.034 429.04 404.113 444.276 386.18L452.096 377.011L446.838 377.955C419.467 382.539 392.904 383.214 372.814 379.573C356.095 376.607 356.095 376.607 361.623 382.405Z" fill="#E3DAB7"/>
<path d="M375.511 41.1414C373.353 41.4111 365.668 42.3549 358.657 43.1639C312.678 48.4224 259.959 66.4901 219.509 91.0298C188.092 110.041 166.249 127.57 141.305 153.323C103.552 192.559 76.4504 237.728 59.3266 289.774C52.9894 308.92 45.3039 339.528 46.5174 340.876C46.9219 341.146 50.6972 338.449 54.8771 334.674C104.631 291.797 168.002 270.628 231.104 276.156C267.509 279.257 291.644 286.403 329.667 305.28C364.32 322.539 374.297 325.235 404.5 325.37C430.658 325.505 442.793 323.078 463.287 313.505C495.647 298.269 517.221 277.369 532.726 245.953C544.861 221.279 549.985 190.402 546.21 164.244C544.457 152.649 537.176 128.918 532.322 119.345C518.299 91.7039 492.816 66.8946 464.636 53.6809C444.141 44.1078 431.601 41.5459 403.826 41.0066C390.477 40.7369 377.803 40.8718 375.511 41.1414ZM434.972 69.8609C469.22 79.8386 498.209 104.109 510.614 133.367C519.243 153.592 520.996 162.357 520.996 183.256C520.996 204.29 518.973 214.133 511.018 231.256C498.344 258.628 480.007 276.965 452.366 289.909C417.848 306.089 378.477 303.527 342.072 282.898C319.15 269.819 287.465 258.762 257.532 253.234C235.689 249.189 194.43 248.92 173.261 252.425C150.339 256.47 118.788 266.043 98.1586 275.482C93.8439 277.369 90.3382 278.448 90.3382 277.909C90.3382 274.942 113.125 231.661 120.945 219.661C167.463 148.738 239.329 97.3669 320.229 76.7374C331.42 73.9059 348.005 70.6699 357.308 69.4564C366.612 68.2429 376.05 67.0294 378.207 66.7598C380.5 66.4901 391.96 66.3553 403.826 66.6249C420.95 66.8946 427.422 67.5688 434.972 69.8609Z" fill="#E3DAB7"/>
<path d="M384.275 81.5913C334.656 85.7712 295.824 96.6927 256.318 117.322C213.846 139.57 177.441 169.772 148.721 206.851C137.8 220.874 120.541 247.571 121.62 248.65C121.889 248.919 128.361 247.301 136.182 245.144C164.766 237.189 178.385 235.301 212.363 235.301C246.206 235.301 254.7 236.38 285.173 244.2C305.128 249.324 323.465 256.605 349.893 269.953C374.702 282.493 383.871 284.92 404.5 284.92C416.635 284.92 422.298 284.381 430.793 281.954C459.917 273.594 481.22 256.335 494.838 230.178C502.928 214.807 506.03 201.863 506.03 183.256C506.164 155.48 497.4 133.502 478.119 113.816C462.344 97.7713 448.051 89.0072 429.444 84.1532C421.354 81.9958 395.871 80.6475 384.275 81.5913ZM421.894 108.558C460.456 118.131 485.939 155.345 480.276 194.042C477.715 212.11 469.085 228.29 455.602 240.425C442.928 251.886 420.95 260.111 403.691 260.111C391.286 259.976 379.691 256.066 353.938 243.256C316.993 224.919 286.791 215.481 251.06 210.896C233.801 208.739 197.396 208.335 185.126 210.087C181.216 210.627 177.98 210.762 177.98 210.222C177.98 208.739 209.531 178.402 219.104 170.851C247.554 148.199 286.251 128.648 323.196 117.996C358.522 107.884 402.073 103.704 421.894 108.558Z" fill="#E3DAB7"/>
<path d="M376.859 123.525C337.488 128.648 299.735 140.109 271.015 155.885C249.981 167.48 217.217 191.076 219.374 193.233C219.913 193.638 223.958 194.042 228.408 194.042C243.239 194.042 271.42 198.222 292.184 203.481C316.993 209.818 336.814 217.369 363.511 230.852C374.567 236.38 386.163 241.639 389.399 242.582C398.837 245.009 413.804 244.47 423.512 241.234C440.635 235.436 452.096 225.054 460.186 207.93C464.231 199.301 464.501 197.953 464.501 183.121C464.501 167.885 464.366 167.345 459.512 157.503C451.152 140.514 437.534 129.188 420.006 124.603C412.59 122.716 388.05 122.041 376.859 123.525ZM415.556 149.547C423.242 151.705 431.602 158.851 435.781 166.941C438.883 172.739 439.557 175.84 439.557 183.121C439.557 203.885 425.264 218.178 404.5 218.312C396.275 218.312 394.522 217.773 372.679 206.852C346.926 194.042 328.993 187.031 306.072 180.559C297.577 178.132 290.027 175.84 289.352 175.57C286.116 173.548 329.398 158.042 350.432 153.592C373.893 148.604 405.174 146.716 415.556 149.547Z" fill="#E3DAB7"/>
<path d="M380.904 163.974C367.825 165.053 335.33 172.199 336.409 173.682C336.679 174.357 340.859 176.109 345.443 177.862C350.162 179.48 364.185 185.952 376.724 192.155C401.129 204.29 405.444 205.368 413.938 201.054C420.68 197.683 424.725 190.941 424.725 183.256C424.725 175.57 420.68 168.828 413.938 165.458C409.354 163.165 397.354 162.626 380.904 163.974Z" fill="#E3DAB7"/>
<path d="M637.762 126.895C637.897 127.839 638.706 132.558 639.784 137.412C640.863 142.266 642.481 154.941 643.29 165.727C648.683 231.796 625.222 298.808 579.649 347.078C564.547 362.989 551.738 373.236 526.524 389.82C509.805 400.877 502.389 406.675 493.49 415.978C475.018 435.259 464.231 454.271 457.49 479.619C454.254 491.215 453.849 495.26 453.849 514.946C453.849 534.631 454.254 538.676 457.49 550.272C472.726 607.172 519.378 648.296 577.626 656.386C629.941 663.667 681.987 640.61 713.538 595.846C720.954 585.464 735.246 557.418 742.797 538.542C776.91 453.192 776.64 355.303 742.258 269.549C729.448 237.728 709.089 202.807 688.055 176.514C671.335 155.75 637.627 122.446 637.762 126.895ZM685.628 216.29C705.987 247.032 722.437 283.707 731.606 318.763C739.426 348.561 741.988 369.865 742.123 403.708C742.258 440.922 739.022 464.653 729.314 498.766C720.549 529.373 701.538 570.497 688.459 586.812C669.852 610.273 645.717 624.835 616.728 630.363C598.93 633.734 569.941 631.577 556.862 625.914C554.974 625.105 550.659 623.217 547.154 621.734C535.019 616.34 523.153 607.711 511.153 595.037C500.501 583.98 497.94 580.205 491.602 567.126C482.029 547.441 479.333 535.44 479.467 513.597C479.602 493.372 482.838 479.35 491.063 462.765C501.58 441.596 516.547 426.091 541.086 410.854C585.312 383.483 619.02 347.213 641.133 303.123C648.414 288.83 656.099 269.414 657.987 261.055C658.661 257.953 660.683 249.863 662.571 243.257C664.324 236.515 666.886 223.032 668.234 213.189C670.122 198.492 670.796 195.526 672.279 197.009C673.223 197.953 679.29 206.582 685.628 216.29Z" fill="#E3DAB7"/>
<path d="M678.346 245.009C668.369 290.988 642.616 339.662 609.447 374.989C593.941 391.708 577.087 405.461 552.412 421.506C540.816 429.192 528.007 438.63 524.097 442.675C481.894 484.878 484.456 553.373 529.625 592.205C540.547 601.644 559.558 611.217 573.176 614.318C584.907 617.015 607.02 617.284 617.402 614.992C642.885 609.194 667.021 592.475 681.313 570.902C689.403 558.497 702.886 529.643 709.493 510.227C722.033 474.091 727.156 443.754 727.156 405.731C727.291 359.213 719.336 319.437 701.538 277.639C695.335 263.212 682.931 239.077 681.043 237.998C680.504 237.594 679.156 240.695 678.346 245.009ZM692.234 328.471C699.111 356.247 701.538 375.393 701.538 403.708C701.673 452.653 692.1 493.238 669.987 537.867C660.953 556.205 658.391 560.115 650.301 568.34C634.256 584.52 613.896 592.745 593.132 591.396C565.896 589.643 543.918 576.16 529.895 552.699C522.749 540.699 520.052 530.452 519.917 514.946C519.782 498.766 523.693 486.091 532.996 472.204C540.547 460.878 545.536 456.428 564.277 444.832C615.784 412.472 654.616 369.326 680.908 314.988C683.875 308.92 685.762 306.359 686.437 307.572C686.976 308.516 689.538 317.954 692.234 328.471Z" fill="#E3DAB7"/>
<path d="M674.841 357.595C650.841 394.809 618.481 427.304 581.132 451.709C555.244 468.563 553.221 470.181 546.614 479.08C538.12 490.271 534.749 502.002 535.558 518.047C535.963 528.968 536.637 531.8 540.951 540.969C547.423 554.587 556.322 563.486 569.941 569.823C578.57 574.003 582.076 574.812 591.649 575.351C606.211 576.16 614.84 574.138 625.357 567.666C641.402 557.823 647.739 549.868 659.47 525.058C672.144 498.226 681.313 464.788 685.088 432.832C687.65 410.045 684.953 354.629 681.043 350.179C680.639 349.64 677.807 353.011 674.841 357.595ZM658.661 439.574C653.402 473.147 644.503 500.653 630.481 526.272C621.042 543.665 611.739 549.868 595.829 550.002C580.862 550.002 569.401 542.452 563.199 528.564C559.289 519.53 560.367 505.373 565.626 496.608C569.806 490.002 571.154 488.923 596.503 472.338C612.548 461.956 631.425 446.72 647.874 431.079C655.29 423.933 661.492 418.27 661.627 418.405C661.897 418.54 660.549 428.113 658.661 439.574Z" fill="#E3DAB7"/>
<path d="M622.66 472.204C614.84 478.271 602.435 486.9 595.02 491.485C579.649 501.058 575.738 505.777 575.738 514.946C575.738 529.912 591.244 539.485 604.997 532.879C610.795 530.182 616.997 520.878 624.953 502.946C630.211 491.08 639.11 465.597 639.11 462.361C639.11 459.934 637.357 461.012 622.66 472.204Z" fill="#E3DAB7"/>
<path d="M198.205 372.697C197.126 372.966 191.598 373.91 186.07 374.719C140.631 382.135 96.2709 419.214 79.5516 463.979C65.9334 500.653 67.8211 544.07 84.6753 577.643C100.586 609.464 135.373 652.745 166.384 679.308C253.891 754.275 364.185 783.264 477.31 760.882C495.917 757.241 530.569 746.859 528.951 745.511C528.277 744.971 525.176 743.893 521.805 742.949C502.524 737.421 471.512 721.376 450.883 706.005C408.815 674.723 375.78 624.161 363.241 572.25C358.926 554.047 357.578 543.396 356.095 515.89C354.477 486.631 350.836 471.664 340.454 450.9C326.566 422.72 305.667 401.955 277.082 387.528C256.723 377.281 240.677 373.236 217.756 372.562C208.183 372.427 199.284 372.427 198.205 372.697ZM234.61 399.798C279.509 408.293 314.971 441.327 326.566 485.282C328.184 491.889 329.667 503.62 330.476 518.856C331.96 546.227 334.252 562.272 339.915 583.711C354.881 640.206 389.803 691.712 437.939 727.982L453.04 739.443L446.703 740.387C443.062 740.926 428.77 741.735 414.612 742.275C369.983 743.893 330.072 737.421 287.33 721.78C255.374 710.05 214.25 686.589 189.036 665.555C164.362 644.925 135.373 611.891 118.653 585.059C101.664 557.958 96.6754 541.912 96.6754 514.946C96.6754 492.563 99.3721 481.372 109.485 461.012C115.687 448.608 118.114 445.237 130.114 433.237C138.609 424.607 147.103 417.596 153.036 414.09C177.306 399.798 207.239 394.54 234.61 399.798Z" fill="#E3DAB7"/>
<path d="M197.531 413.821C186.609 415.574 171.778 420.967 161.395 426.9C151.148 432.967 131.732 452.248 125.53 462.63C108.136 492.294 106.383 526.676 120.541 557.553C138.204 595.576 182.025 644.116 224.228 672.566C264.678 699.533 312.409 717.87 360.409 724.612C375.915 726.769 411.242 728.791 411.242 727.578C411.242 727.039 404.365 719.892 396.14 711.533C377.668 692.926 364.32 675.667 352.994 655.172C328.858 611.891 318.341 574.272 315.51 521.283C314.701 505.103 313.487 495.125 311.465 488.114C301.487 452.788 275.195 426.495 239.734 416.517C228.408 413.281 209.261 412.068 197.531 413.821ZM237.307 442.81C254.161 448.608 266.565 458.046 276.408 472.743C286.251 487.305 288.408 496.069 290.026 525.058C293.262 587.756 306.476 628.88 341.263 684.431C346.252 692.252 348.409 696.971 347.196 696.971C344.229 696.971 314.431 688.072 300.678 683.083C261.442 668.791 224.767 645.06 194.564 614.453C177.171 596.924 168.676 586.677 157.35 569.553C139.552 542.587 134.429 525.598 137.53 504.833C144.811 456.563 192.003 427.169 237.307 442.81Z" fill="#E3DAB7"/>
<path d="M204.273 454.271C182.834 457.641 167.463 469.237 157.89 489.192C153.171 499.17 153.036 499.844 153.036 514.946C153.036 529.642 153.306 530.991 157.485 539.755C170.429 567.126 203.868 606.093 233.936 629.015C244.992 637.374 266.296 650.723 278.701 656.925C287.06 661.24 312.948 671.622 313.622 671.083C313.892 670.813 311.061 664.611 307.42 657.195C288.139 617.419 277.622 575.216 275.06 527.62C273.442 494.855 270.206 485.687 256.049 471.394C247.015 462.361 235.284 456.428 222.34 454.271C217.621 453.596 213.172 453.057 212.363 453.057C211.688 453.192 208.048 453.731 204.273 454.271ZM228.812 483.395C236.767 487.17 241.891 492.698 245.666 501.193C247.689 505.642 248.498 512.249 249.442 530.856C250.925 557.148 253.891 577.643 260.228 602.722C262.521 611.756 264.139 619.307 264.004 619.576C263.734 619.711 256.858 614.722 248.768 608.385C222.745 587.89 201.306 563.89 185.531 538.002C179.598 528.159 178.789 526.002 178.25 517.238C177.306 502.811 183.104 491.35 194.969 484.473C206.025 478.001 216.542 477.732 228.812 483.395Z" fill="#E3DAB7"/>
<path d="M203.733 497.013C196.317 500.923 193.486 505.777 193.486 514.811C193.486 521.418 194.16 523.575 199.284 531.665C210.07 548.924 235.284 579.666 238.52 579.666C239.06 579.666 238.79 574.947 237.846 569.149C236.902 563.486 235.419 547.575 234.61 533.822C232.857 507.125 231.913 503.62 224.902 498.361C219.913 494.586 209.531 493.912 203.733 497.013Z" fill="#E3DAB7"/>
</svg>
