<svg width="874" height="852" viewBox="0 0 874 852" fill="none" xmlns="http://www.w3.org/2000/svg">
<path d="M8.97602 553.417V546.529H2.88002V553.417H1.86563e-05V537.097H2.88002V543.769H8.97602V537.097H11.856V553.417H8.97602ZM25.0474 553.417L24.0394 550.225H18.4474L17.4394 553.417H14.5834L20.0314 537.097H22.5754L28.0474 553.417H25.0474ZM20.0074 545.233L19.2634 547.585H23.1994L22.4554 545.233L21.2554 541.105L20.0074 545.233ZM32.5127 546.961C32.5127 548.129 32.7687 549.089 33.2807 549.841C33.7927 550.577 34.6327 550.945 35.8007 550.945C36.2807 550.945 36.7767 550.881 37.2887 550.753C37.8167 550.625 38.4647 550.409 39.2327 550.105L40.1207 552.601C39.2567 552.985 38.4567 553.257 37.7207 553.417C37.0007 553.577 36.3047 553.657 35.6327 553.657C34.2887 553.657 33.1607 553.369 32.2487 552.793C31.3527 552.217 30.6807 551.425 30.2327 550.417C29.7847 549.409 29.5607 548.257 29.5607 546.961V543.529C29.5607 542.233 29.7847 541.081 30.2327 540.073C30.6807 539.065 31.3527 538.281 32.2487 537.721C33.1607 537.145 34.2887 536.857 35.6327 536.857C36.2887 536.857 36.9687 536.937 37.6727 537.097C38.3767 537.241 39.1447 537.497 39.9767 537.865L39.0887 540.409C38.3527 540.105 37.7367 539.889 37.2407 539.761C36.7447 539.633 36.2647 539.569 35.8007 539.569C34.6327 539.569 33.7927 539.937 33.2807 540.673C32.7687 541.409 32.5127 542.361 32.5127 543.529V546.961ZM51.789 553.417L47.709 546.289C47.437 546.593 47.157 546.897 46.869 547.201C46.597 547.505 46.309 547.817 46.005 548.137V553.417H43.125V537.097H46.005V544.849C47.221 543.457 48.261 542.137 49.125 540.889C49.989 539.625 50.733 538.361 51.357 537.097H54.501C53.813 538.473 53.077 539.777 52.293 541.009C51.525 542.225 50.709 543.353 49.845 544.393L55.269 553.417H51.789ZM57.9141 553.417V537.097H63.2901C65.0021 537.097 66.2821 537.529 67.1301 538.393C67.9941 539.257 68.4261 540.409 68.4261 541.849V543.121C68.4261 544.561 67.9941 545.721 67.1301 546.601C66.2821 547.465 65.0021 547.897 63.2901 547.897H60.7941V553.417H57.9141ZM63.2901 539.857H60.7941V545.137H63.2901C63.9941 545.137 64.5301 544.961 64.8981 544.609C65.2821 544.257 65.4741 543.761 65.4741 543.121V541.849C65.4741 541.225 65.2821 540.737 64.8981 540.385C64.5301 540.033 63.9941 539.857 63.2901 539.857ZM79.3052 553.417L78.2972 550.225H72.7052L71.6972 553.417H68.8412L74.2892 537.097H76.8332L82.3052 553.417H79.3052ZM74.2652 545.233L73.5212 547.585H77.4572L76.7132 545.233L75.5132 541.105L74.2652 545.233ZM85.0313 553.417V537.097H90.5513C92.5033 537.097 93.9913 537.641 95.0153 538.729C96.0393 539.817 96.5513 541.417 96.5513 543.529V546.961C96.5513 549.089 96.0393 550.697 95.0153 551.785C93.9913 552.873 92.5033 553.417 90.5513 553.417H85.0313ZM90.4313 539.857H87.9113V550.657H90.4313C91.5673 550.657 92.3753 550.377 92.8553 549.817C93.3513 549.257 93.5993 548.305 93.5993 546.961V543.529C93.5993 542.201 93.3513 541.257 92.8553 540.697C92.3753 540.137 91.5673 539.857 90.4313 539.857ZM99.3034 547.057V544.657H106.599V547.057H99.3034ZM112.943 547.417V553.417H110.063V537.097H115.511C117.159 537.097 118.423 537.521 119.303 538.369C120.199 539.201 120.647 540.321 120.647 541.729V542.761C120.647 543.689 120.447 544.505 120.047 545.209C119.647 545.913 119.071 546.449 118.319 546.817C119.631 549.057 120.751 551.257 121.679 553.417H118.391C117.591 551.417 116.639 549.417 115.535 547.417H112.943ZM115.511 539.737H112.943V544.777H115.511C116.215 544.777 116.751 544.601 117.119 544.249C117.503 543.881 117.695 543.385 117.695 542.761V541.729C117.695 541.121 117.503 540.641 117.119 540.289C116.751 539.921 116.215 539.737 115.511 539.737ZM134.144 550.657V553.417H124.688V537.097H133.904V539.857H127.568V543.769H133.184V546.529H127.568V550.657H134.144ZM148.979 537.097L143.795 553.417H140.843L135.635 537.097H138.803L141.275 545.305L142.403 549.529L143.603 545.281L146.051 537.097H148.979ZM149.671 547.057V544.657H156.967V547.057H149.671ZM168.391 553.417L167.383 550.225H161.791L160.783 553.417H157.927L163.375 537.097H165.919L171.391 553.417H168.391ZM163.351 545.233L162.607 547.585H166.543L165.799 545.233L164.599 541.105L163.351 545.233ZM50.991 566.097H53.943V576.561C53.943 577.617 54.175 578.449 54.639 579.057C55.103 579.649 55.847 579.945 56.871 579.945C57.895 579.945 58.639 579.649 59.103 579.057C59.567 578.449 59.799 577.617 59.799 576.561V566.097H62.751V576.561C62.751 578.401 62.263 579.881 61.287 581.001C60.311 582.105 58.839 582.657 56.871 582.657C54.887 582.657 53.407 582.105 52.431 581.001C51.471 579.881 50.991 578.401 50.991 576.561V566.097ZM66.8906 582.417V566.097H69.5306C70.7946 567.745 71.9946 569.489 73.1306 571.329C74.2666 573.153 75.2986 575.033 76.2266 576.969L76.0106 572.097V566.097H78.7706V582.417H76.1306C75.1066 580.401 74.0426 578.377 72.9386 576.345C71.8506 574.297 70.6906 572.369 69.4586 570.561L69.6506 576.177V582.417H66.8906ZM86.1535 582.417H83.2735V566.097H86.1535V582.417ZM88.7123 568.857V566.097H100.712V568.857H96.1523V582.417H93.2723V568.857H88.7123ZM118.918 572.529V575.961C118.918 578.041 118.43 579.681 117.454 580.881C116.478 582.065 115.046 582.657 113.158 582.657C111.27 582.657 109.838 582.065 108.862 580.881C107.886 579.681 107.398 578.041 107.398 575.961V572.529C107.398 570.449 107.886 568.817 108.862 567.633C109.838 566.449 111.27 565.857 113.158 565.857C115.046 565.857 116.478 566.449 117.454 567.633C118.43 568.817 118.918 570.449 118.918 572.529ZM116.014 572.529C116.014 569.857 115.062 568.521 113.158 568.521C112.182 568.521 111.462 568.857 110.998 569.529C110.534 570.201 110.302 571.201 110.302 572.529V575.961C110.302 577.289 110.534 578.297 110.998 578.985C111.462 579.657 112.182 579.993 113.158 579.993C115.062 579.993 116.014 578.649 116.014 575.961V572.529Z" fill="#E3DAB7"/>
<path d="M864.923 662.329H850.043V660.361H864.827C865.259 660.361 865.587 660.297 865.811 660.169C866.019 660.025 866.123 659.745 866.123 659.329V658.945H867.923V659.497C867.923 660.553 867.643 661.289 867.083 661.705C866.523 662.121 865.803 662.329 864.923 662.329ZM867.107 647.361C867.459 648.081 867.699 648.801 867.827 649.521C867.971 650.241 868.043 650.905 868.043 651.513C868.043 653.225 867.555 654.505 866.579 655.353C865.603 656.185 864.267 656.601 862.571 656.601H861.131C859.483 656.601 858.163 656.185 857.171 655.353C856.179 654.505 855.683 653.313 855.683 651.777C855.683 650.961 855.851 650.217 856.187 649.545C856.507 648.857 857.003 648.313 857.675 647.913C858.331 647.497 859.179 647.289 860.219 647.289C860.891 647.289 861.659 647.385 862.523 647.577V654.657H862.571C863.787 654.657 864.707 654.409 865.331 653.913C865.955 653.401 866.267 652.585 866.267 651.465C866.267 650.953 866.203 650.393 866.075 649.785C865.947 649.161 865.747 648.553 865.475 647.961L867.107 647.361ZM857.411 651.777C857.411 652.705 857.715 653.409 858.323 653.889C858.915 654.353 859.755 654.609 860.843 654.657V649.281C860.555 649.233 860.283 649.209 860.027 649.209C859.131 649.209 858.475 649.465 858.059 649.977C857.627 650.473 857.411 651.073 857.411 651.777ZM869.291 634.379C870.459 634.379 871.395 634.859 872.099 635.819C872.803 636.763 873.155 638.067 873.155 639.731C873.155 640.563 873.043 641.435 872.819 642.347C872.595 643.243 872.235 644.091 871.739 644.891L870.203 644.219C870.651 643.419 870.963 642.651 871.139 641.915C871.331 641.163 871.427 640.435 871.427 639.731C871.427 638.643 871.251 637.803 870.899 637.211C870.547 636.619 870.075 636.323 869.483 636.323C869.051 636.323 868.715 636.467 868.475 636.755C868.251 637.043 868.139 637.507 868.139 638.147V640.907C868.139 641.947 867.891 642.699 867.395 643.163C866.899 643.627 866.355 643.859 865.763 643.859C865.347 643.859 864.939 643.763 864.539 643.571C864.123 643.379 863.715 643.107 863.315 642.755C862.979 643.315 862.523 643.763 861.947 644.099C861.355 644.435 860.643 644.603 859.811 644.603C858.899 644.603 858.139 644.411 857.531 644.027C856.923 643.627 856.467 643.099 856.163 642.443C855.843 641.787 855.683 641.051 855.683 640.235V639.827C855.683 639.267 855.763 638.755 855.923 638.291V634.019H857.675L857.315 636.611C857.603 636.275 857.963 636.003 858.395 635.795C858.811 635.587 859.323 635.483 859.931 635.483C860.795 635.483 861.523 635.683 862.115 636.083C862.707 636.467 863.163 636.987 863.483 637.643C863.787 638.299 863.939 639.027 863.939 639.827V640.235C863.939 640.443 863.931 640.643 863.915 640.835C863.883 641.027 863.851 641.219 863.819 641.411C864.331 641.875 864.835 642.107 865.331 642.107C865.971 642.107 866.291 641.659 866.291 640.763V638.075C866.291 636.923 866.547 636.019 867.059 635.363C867.571 634.707 868.315 634.379 869.291 634.379ZM862.235 639.827C862.235 639.203 862.035 638.651 861.635 638.171C861.235 637.691 860.627 637.451 859.811 637.451C859.011 637.451 858.411 637.691 858.011 638.171C857.595 638.651 857.387 639.203 857.387 639.827V640.235C857.387 640.875 857.595 641.435 858.011 641.915C858.411 642.395 859.011 642.635 859.811 642.635C860.627 642.635 861.235 642.395 861.635 641.915C862.035 641.435 862.235 640.875 862.235 640.235V639.827ZM867.107 622.798C867.459 623.518 867.699 624.238 867.827 624.958C867.971 625.678 868.043 626.342 868.043 626.95C868.043 628.662 867.555 629.942 866.579 630.79C865.603 631.622 864.267 632.038 862.571 632.038H861.131C859.483 632.038 858.163 631.622 857.171 630.79C856.179 629.942 855.683 628.75 855.683 627.214C855.683 626.398 855.851 625.654 856.187 624.982C856.507 624.294 857.003 623.75 857.675 623.35C858.331 622.934 859.179 622.726 860.219 622.726C860.891 622.726 861.659 622.822 862.523 623.014V630.094H862.571C863.787 630.094 864.707 629.846 865.331 629.35C865.955 628.838 866.267 628.022 866.267 626.902C866.267 626.39 866.203 625.83 866.075 625.222C865.947 624.598 865.747 623.99 865.475 623.398L867.107 622.798ZM857.411 627.214C857.411 628.142 857.715 628.846 858.323 629.326C858.915 629.79 859.755 630.046 860.843 630.094V624.718C860.555 624.67 860.283 624.646 860.027 624.646C859.131 624.646 858.475 624.902 858.059 625.414C857.627 625.91 857.411 626.51 857.411 627.214ZM857.531 613.608C857.531 614.056 857.643 614.584 857.867 615.192C858.091 615.784 858.547 616.504 859.235 617.352H867.803V619.32H855.923V617.448H857.579C856.859 616.6 856.363 615.832 856.091 615.144C855.819 614.44 855.683 613.768 855.683 613.128C855.683 612.024 856.035 611.184 856.739 610.608C857.427 610.016 858.411 609.72 859.691 609.72H867.803V611.688H859.979C858.347 611.688 857.531 612.328 857.531 613.608ZM867.803 598.385H866.147C866.851 599.121 867.347 599.793 867.635 600.401C867.907 600.993 868.043 601.609 868.043 602.249C868.043 603.513 867.563 604.489 866.603 605.177C865.643 605.849 864.299 606.185 862.571 606.185H861.179C859.499 606.185 858.163 605.769 857.171 604.937C856.179 604.089 855.683 602.865 855.683 601.265C855.683 600.801 855.731 600.337 855.827 599.873C855.923 599.409 856.059 598.945 856.235 598.481H850.043V596.513H867.803V598.385ZM862.571 604.145C863.819 604.145 864.739 603.953 865.331 603.569C865.907 603.169 866.195 602.577 866.195 601.793C866.195 601.329 866.083 600.849 865.859 600.353C865.619 599.857 865.131 599.233 864.395 598.481H858.059C857.851 598.945 857.707 599.393 857.627 599.825C857.531 600.257 857.483 600.681 857.483 601.097C857.483 602.185 857.811 602.969 858.467 603.449C859.123 603.913 860.027 604.145 861.179 604.145H862.571ZM866.291 589.369C866.291 587.769 865.747 586.969 864.659 586.969C864.195 586.969 863.827 587.113 863.555 587.401C863.283 587.689 863.051 588.217 862.859 588.985L862.523 590.305C862.283 591.281 861.867 592.009 861.275 592.489C860.667 592.969 859.947 593.209 859.115 593.209C858.507 593.209 857.947 593.073 857.435 592.801C856.907 592.529 856.483 592.097 856.163 591.505C855.843 590.913 855.683 590.145 855.683 589.201C855.683 588.593 855.755 587.977 855.899 587.353C856.027 586.713 856.251 586.065 856.571 585.409L858.227 586.033C857.699 587.201 857.435 588.257 857.435 589.201C857.435 590.593 857.955 591.289 858.995 591.289C859.395 591.289 859.739 591.161 860.027 590.905C860.315 590.649 860.547 590.169 860.723 589.465L861.059 588.145C861.315 587.089 861.731 586.313 862.307 585.817C862.883 585.321 863.627 585.073 864.539 585.073C865.195 585.073 865.795 585.217 866.339 585.505C866.867 585.777 867.283 586.225 867.587 586.849C867.891 587.457 868.043 588.281 868.043 589.321C868.043 590.009 867.971 590.697 867.827 591.385C867.683 592.057 867.451 592.753 867.131 593.473L865.499 592.945C865.771 592.257 865.971 591.633 866.099 591.073C866.227 590.513 866.291 589.945 866.291 589.369ZM857.531 570.999C857.531 571.447 857.643 571.975 857.867 572.583C858.091 573.175 858.547 573.895 859.235 574.743H867.803V576.711H855.923V574.839H857.579C856.859 573.991 856.363 573.223 856.091 572.535C855.819 571.831 855.683 571.159 855.683 570.519C855.683 569.415 856.035 568.575 856.739 567.999C857.427 567.407 858.411 567.111 859.691 567.111H867.803V569.079H859.979C858.347 569.079 857.531 569.719 857.531 570.999ZM867.107 554.384C867.459 555.104 867.699 555.824 867.827 556.544C867.971 557.264 868.043 557.928 868.043 558.536C868.043 560.248 867.555 561.528 866.579 562.376C865.603 563.208 864.267 563.624 862.571 563.624H861.131C859.483 563.624 858.163 563.208 857.171 562.376C856.179 561.528 855.683 560.336 855.683 558.8C855.683 557.984 855.851 557.24 856.187 556.568C856.507 555.88 857.003 555.336 857.675 554.936C858.331 554.52 859.179 554.312 860.219 554.312C860.891 554.312 861.659 554.408 862.523 554.6V561.68H862.571C863.787 561.68 864.707 561.432 865.331 560.936C865.955 560.424 866.267 559.608 866.267 558.488C866.267 557.976 866.203 557.416 866.075 556.808C865.947 556.184 865.747 555.576 865.475 554.984L867.107 554.384ZM857.411 558.8C857.411 559.728 857.715 560.432 858.323 560.912C858.915 561.376 859.755 561.632 860.843 561.68V556.304C860.555 556.256 860.283 556.232 860.027 556.232C859.131 556.232 858.475 556.488 858.059 557C857.627 557.496 857.411 558.096 857.411 558.8ZM855.923 542.265L867.803 546.465V548.313L855.923 552.561V550.521L861.707 548.529L865.331 547.329L861.707 546.153L855.923 544.209V542.265ZM867.107 531.251C867.459 531.971 867.699 532.691 867.827 533.411C867.971 534.131 868.043 534.795 868.043 535.403C868.043 537.115 867.555 538.395 866.579 539.243C865.603 540.075 864.267 540.491 862.571 540.491H861.131C859.483 540.491 858.163 540.075 857.171 539.243C856.179 538.395 855.683 537.203 855.683 535.667C855.683 534.851 855.851 534.107 856.187 533.435C856.507 532.747 857.003 532.203 857.675 531.803C858.331 531.387 859.179 531.179 860.219 531.179C860.891 531.179 861.659 531.275 862.523 531.467V538.547H862.571C863.787 538.547 864.707 538.299 865.331 537.803C865.955 537.291 866.267 536.475 866.267 535.355C866.267 534.843 866.203 534.283 866.075 533.675C865.947 533.051 865.747 532.443 865.475 531.851L867.107 531.251ZM857.411 535.667C857.411 536.595 857.715 537.299 858.323 537.779C858.915 538.243 859.755 538.499 860.843 538.547V533.171C860.555 533.123 860.283 533.099 860.027 533.099C859.131 533.099 858.475 533.355 858.059 533.867C857.627 534.363 857.411 534.963 857.411 535.667ZM857.651 521.533C857.651 522.253 857.779 522.957 858.035 523.645C858.291 524.317 858.779 525.037 859.499 525.805H867.803V527.773H855.923V525.901H857.843C857.043 525.085 856.483 524.341 856.163 523.669C855.843 522.981 855.683 522.269 855.683 521.533H857.651ZM867.803 506.51H866.147C866.851 507.246 867.347 507.918 867.635 508.526C867.907 509.118 868.043 509.734 868.043 510.374C868.043 511.638 867.563 512.614 866.603 513.302C865.643 513.974 864.299 514.31 862.571 514.31H861.179C859.499 514.31 858.163 513.894 857.171 513.062C856.179 512.214 855.683 510.99 855.683 509.39C855.683 508.926 855.731 508.462 855.827 507.998C855.923 507.534 856.059 507.07 856.235 506.606H850.043V504.638H867.803V506.51ZM862.571 512.27C863.819 512.27 864.739 512.078 865.331 511.694C865.907 511.294 866.195 510.702 866.195 509.918C866.195 509.454 866.083 508.974 865.859 508.478C865.619 507.982 865.131 507.358 864.395 506.606H858.059C857.851 507.07 857.707 507.518 857.627 507.95C857.531 508.382 857.483 508.806 857.483 509.222C857.483 510.31 857.811 511.094 858.467 511.574C859.123 512.038 860.027 512.27 861.179 512.27H862.571ZM853.019 498.31V500.518H850.811V498.31H853.019ZM867.803 498.43V500.398H855.923V498.43H867.803ZM867.107 485.571C867.459 486.291 867.699 487.011 867.827 487.731C867.971 488.451 868.043 489.115 868.043 489.723C868.043 491.435 867.555 492.715 866.579 493.563C865.603 494.395 864.267 494.811 862.571 494.811H861.131C859.483 494.811 858.163 494.395 857.171 493.563C856.179 492.715 855.683 491.523 855.683 489.987C855.683 489.171 855.851 488.427 856.187 487.755C856.507 487.067 857.003 486.523 857.675 486.123C858.331 485.707 859.179 485.499 860.219 485.499C860.891 485.499 861.659 485.595 862.523 485.787V492.867H862.571C863.787 492.867 864.707 492.619 865.331 492.123C865.955 491.611 866.267 490.795 866.267 489.675C866.267 489.163 866.203 488.603 866.075 487.995C865.947 487.371 865.747 486.763 865.475 486.171L867.107 485.571ZM857.411 489.987C857.411 490.915 857.715 491.619 858.323 492.099C858.915 492.563 859.755 492.819 860.843 492.867V487.491C860.555 487.443 860.283 487.419 860.027 487.419C859.131 487.419 858.475 487.675 858.059 488.187C857.627 488.683 857.411 489.283 857.411 489.987Z" fill="#E3DAB7"/>
<path d="M1.34661 851.417V835.097H6.41061C8.28261 835.097 9.72261 835.665 10.7306 836.801C11.7386 837.921 12.2426 839.473 12.2426 841.457V845.033C12.2426 847.033 11.7386 848.601 10.7306 849.737C9.72261 850.857 8.28261 851.417 6.41061 851.417H1.34661ZM6.36261 837.065H3.43461V849.473H6.36261C8.84261 849.473 10.0826 847.993 10.0826 845.033V841.457C10.0826 838.529 8.84261 837.065 6.36261 837.065ZM25.7479 849.473V851.417H16.6279V835.097H25.5079V837.065H18.7159V842.177H24.7879V844.145H18.7159V849.473H25.7479ZM32.7139 849.785C33.7219 849.785 34.4979 849.569 35.0419 849.137C35.5859 848.689 35.8579 848.041 35.8579 847.193C35.8579 846.489 35.6659 845.897 35.2819 845.417C34.9139 844.937 34.3059 844.569 33.4579 844.313L31.5139 843.737C30.2979 843.369 29.4019 842.817 28.8259 842.081C28.2499 841.329 27.9619 840.409 27.9619 839.321C27.9619 838.489 28.1219 837.737 28.4419 837.065C28.7779 836.393 29.3059 835.857 30.0259 835.457C30.7619 835.057 31.7219 834.857 32.9059 834.857C33.6259 834.857 34.3699 834.945 35.1379 835.121C35.9059 835.281 36.6819 835.545 37.4659 835.913L36.7939 837.713C36.0259 837.377 35.3299 837.137 34.7059 836.993C34.0979 836.833 33.5139 836.753 32.9539 836.753C32.0419 836.753 31.3299 836.945 30.8179 837.329C30.3219 837.697 30.0739 838.313 30.0739 839.177C30.0739 839.801 30.2419 840.329 30.5779 840.761C30.9139 841.177 31.5139 841.521 32.3779 841.793L34.3219 842.369C36.7539 843.089 37.9699 844.641 37.9699 847.025C37.9699 848.401 37.5539 849.521 36.7219 850.385C35.8899 851.233 34.5539 851.657 32.7139 851.657C31.9619 851.657 31.1619 851.569 30.3139 851.393C29.4819 851.201 28.6179 850.905 27.7219 850.505L28.3699 848.729C29.2179 849.113 29.9779 849.385 30.6499 849.545C31.3379 849.705 32.0259 849.785 32.7139 849.785ZM43.6065 851.417H41.5185V835.097H43.6065V851.417ZM59.0338 850.289C58.5698 850.593 57.9058 850.897 57.0418 851.201C56.1938 851.505 55.1698 851.657 53.9698 851.657C52.6738 851.657 51.5778 851.385 50.6818 850.841C49.8018 850.281 49.1298 849.505 48.6658 848.513C48.2178 847.505 47.9938 846.345 47.9938 845.033V841.457C47.9938 839.409 48.5058 837.801 49.5298 836.633C50.5698 835.449 52.0738 834.857 54.0418 834.857C54.7618 834.857 55.5138 834.937 56.2978 835.097C57.0978 835.257 57.8898 835.521 58.6738 835.889L58.0018 837.689C56.5618 837.097 55.2498 836.801 54.0658 836.801C52.7538 836.801 51.7698 837.201 51.1138 838.001C50.4738 838.785 50.1538 839.937 50.1538 841.457V845.033C50.1538 846.473 50.4818 847.617 51.1378 848.465C51.7938 849.313 52.7858 849.737 54.1138 849.737C54.6258 849.737 55.1458 849.681 55.6738 849.569C56.2178 849.457 56.6978 849.305 57.1138 849.113V844.721H54.0658V842.873H59.0338V850.289ZM63.1982 851.417V835.097H65.3822C66.8382 837.177 68.1742 839.273 69.3902 841.385C70.6222 843.481 71.7742 845.673 72.8462 847.961L72.6062 841.721V835.097H74.6462V851.417H72.4622C71.3422 849.081 70.1822 846.809 68.9822 844.601C67.7982 842.377 66.5022 840.209 65.0942 838.097L65.2382 844.745V851.417H63.1982ZM88.8885 849.473V851.417H79.7685V835.097H88.6485V837.065H81.8565V842.177H87.9285V844.145H81.8565V849.473H88.8885ZM92.5185 851.417V835.097H97.5825C99.4545 835.097 100.894 835.665 101.902 836.801C102.91 837.921 103.414 839.473 103.414 841.457V845.033C103.414 847.033 102.91 848.601 101.902 849.737C100.894 850.857 99.4545 851.417 97.5825 851.417H92.5185ZM97.5345 837.065H94.6065V849.473H97.5345C100.014 849.473 101.254 847.993 101.254 845.033V841.457C101.254 838.529 100.014 837.065 97.5345 837.065ZM115.114 851.417H113.026V835.097H115.114V851.417ZM120.222 851.417V835.097H122.406C123.862 837.177 125.198 839.273 126.414 841.385C127.646 843.481 128.798 845.673 129.87 847.961L129.63 841.721V835.097H131.67V851.417H129.486C128.366 849.081 127.206 846.809 126.006 844.601C124.822 842.377 123.526 840.209 122.118 838.097L122.262 844.745V851.417H120.222ZM144.106 845.033V851.417H142.018V835.097H147.13C148.666 835.097 149.85 835.505 150.682 836.321C151.53 837.121 151.954 838.193 151.954 839.537V840.569C151.954 841.529 151.73 842.361 151.282 843.065C150.85 843.769 150.226 844.289 149.41 844.625C150.098 845.729 150.738 846.849 151.33 847.985C151.922 849.121 152.466 850.265 152.962 851.417H150.562C149.65 849.241 148.586 847.113 147.37 845.033H144.106ZM147.13 837.017H144.106V843.113H147.13C147.946 843.113 148.594 842.889 149.074 842.441C149.554 841.977 149.794 841.353 149.794 840.569V839.537C149.794 838.737 149.554 838.121 149.074 837.689C148.594 837.241 147.946 837.017 147.13 837.017ZM165.553 849.473V851.417H156.433V835.097H165.313V837.065H158.521V842.177H164.593V844.145H158.521V849.473H165.553ZM169.183 851.417V835.097H171.367C172.823 837.177 174.159 839.273 175.375 841.385C176.607 843.481 177.759 845.673 178.831 847.961L178.591 841.721V835.097H180.631V851.417H178.447C177.327 849.081 176.167 846.809 174.967 844.601C173.783 842.377 172.487 840.209 171.079 838.097L171.223 844.745V851.417H169.183ZM185.753 851.417V835.097H187.937C189.393 837.177 190.729 839.273 191.945 841.385C193.177 843.481 194.329 845.673 195.401 847.961L195.161 841.721V835.097H197.201V851.417H195.017C193.897 849.081 192.737 846.809 191.537 844.601C190.353 842.377 189.057 840.209 187.649 838.097L187.793 844.745V851.417H185.753ZM211.443 849.473V851.417H202.323V835.097H211.203V837.065H204.411V842.177H210.483V844.145H204.411V849.473H211.443ZM218.409 849.785C219.417 849.785 220.193 849.569 220.737 849.137C221.281 848.689 221.553 848.041 221.553 847.193C221.553 846.489 221.361 845.897 220.977 845.417C220.609 844.937 220.001 844.569 219.153 844.313L217.209 843.737C215.993 843.369 215.097 842.817 214.521 842.081C213.945 841.329 213.657 840.409 213.657 839.321C213.657 838.489 213.817 837.737 214.137 837.065C214.473 836.393 215.001 835.857 215.721 835.457C216.457 835.057 217.417 834.857 218.601 834.857C219.321 834.857 220.065 834.945 220.833 835.121C221.601 835.281 222.377 835.545 223.161 835.913L222.489 837.713C221.721 837.377 221.025 837.137 220.401 836.993C219.793 836.833 219.209 836.753 218.649 836.753C217.737 836.753 217.025 836.945 216.513 837.329C216.017 837.697 215.769 838.313 215.769 839.177C215.769 839.801 215.937 840.329 216.273 840.761C216.609 841.177 217.209 841.521 218.073 841.793L220.017 842.369C222.449 843.089 223.665 844.641 223.665 847.025C223.665 848.401 223.249 849.521 222.417 850.385C221.585 851.233 220.249 851.657 218.409 851.657C217.657 851.657 216.857 851.569 216.009 851.393C215.177 851.201 214.313 850.905 213.417 850.505L214.065 848.729C214.913 849.113 215.673 849.385 216.345 849.545C217.033 849.705 217.721 849.785 218.409 849.785ZM231.24 845.009V843.281H237.96V845.009H231.24ZM254.961 851.417H245.649V849.833C245.649 848.633 245.793 847.625 246.081 846.809C246.385 845.993 246.785 845.321 247.281 844.793C247.793 844.249 248.361 843.817 248.985 843.497L250.545 842.705C251.281 842.321 251.865 841.921 252.297 841.505C252.745 841.089 252.969 840.489 252.969 839.705V839.297C252.969 838.401 252.713 837.753 252.201 837.353C251.705 836.953 250.969 836.753 249.993 836.753C249.449 836.753 248.873 836.825 248.265 836.969C247.657 837.097 246.985 837.321 246.249 837.641L245.577 835.889C246.377 835.521 247.145 835.257 247.881 835.097C248.633 834.937 249.353 834.857 250.041 834.857C251.817 834.857 253.089 835.273 253.857 836.105C254.625 836.921 255.009 837.985 255.009 839.297V839.705C255.009 840.569 254.841 841.289 254.505 841.865C254.185 842.441 253.753 842.929 253.209 843.329C252.681 843.713 252.113 844.057 251.505 844.361L249.945 845.177C249.193 845.577 248.633 846.129 248.265 846.833C247.913 847.537 247.721 848.433 247.689 849.521H254.961V851.417ZM256.813 837.353L260.701 835.097H262.597V851.417H260.557V837.305L257.725 838.937L256.813 837.353ZM280.933 844.553H275.005V851.417H272.917V835.097H281.653V837.065H275.005V842.585H280.933V844.553ZM294.178 849.473V851.417H285.058V835.097H293.938V837.065H287.146V842.177H293.218V844.145H287.146V849.473H294.178ZM290.338 833.081H288.634L290.794 829.097L292.666 829.961L290.338 833.081ZM308.296 835.097L303.088 851.417H300.976L295.744 835.097H297.952L300.544 843.377L302.104 848.609L303.688 843.353L306.232 835.097H308.296ZM313.419 845.033V851.417H311.331V835.097H316.443C317.979 835.097 319.163 835.505 319.995 836.321C320.843 837.121 321.267 838.193 321.267 839.537V840.569C321.267 841.529 321.043 842.361 320.595 843.065C320.163 843.769 319.539 844.289 318.723 844.625C319.411 845.729 320.051 846.849 320.643 847.985C321.235 849.121 321.779 850.265 322.275 851.417H319.875C318.963 849.241 317.899 847.113 316.683 845.033H313.419ZM316.443 837.017H313.419V843.113H316.443C317.259 843.113 317.907 842.889 318.387 842.441C318.867 841.977 319.107 841.353 319.107 840.569V839.537C319.107 838.737 318.867 838.121 318.387 837.689C317.907 837.241 317.259 837.017 316.443 837.017ZM327.833 851.417H325.745V835.097H327.833V851.417ZM342.06 849.473V851.417H332.94V835.097H341.82V837.065H335.028V842.177H341.1V844.145H335.028V849.473H342.06ZM347.778 845.033V851.417H345.69V835.097H350.802C352.338 835.097 353.522 835.505 354.354 836.321C355.202 837.121 355.626 838.193 355.626 839.537V840.569C355.626 841.529 355.402 842.361 354.954 843.065C354.522 843.769 353.898 844.289 353.082 844.625C353.77 845.729 354.41 846.849 355.002 847.985C355.594 849.121 356.138 850.265 356.634 851.417H354.234C353.322 849.241 352.258 847.113 351.042 845.033H347.778ZM350.802 837.017H347.778V843.113H350.802C351.618 843.113 352.266 842.889 352.746 842.441C353.226 841.977 353.466 841.353 353.466 840.569V839.537C353.466 838.737 353.226 838.121 352.746 837.689C352.266 837.241 351.618 837.017 350.802 837.017ZM373.227 851.417H363.915V849.833C363.915 848.633 364.059 847.625 364.347 846.809C364.651 845.993 365.051 845.321 365.547 844.793C366.059 844.249 366.627 843.817 367.251 843.497L368.811 842.705C369.547 842.321 370.131 841.921 370.563 841.505C371.011 841.089 371.235 840.489 371.235 839.705V839.297C371.235 838.401 370.979 837.753 370.467 837.353C369.971 836.953 369.235 836.753 368.259 836.753C367.715 836.753 367.139 836.825 366.531 836.969C365.923 837.097 365.251 837.321 364.515 837.641L363.843 835.889C364.643 835.521 365.411 835.257 366.147 835.097C366.899 834.937 367.619 834.857 368.307 834.857C370.083 834.857 371.355 835.273 372.123 836.105C372.891 836.921 373.275 837.985 373.275 839.297V839.705C373.275 840.569 373.107 841.289 372.771 841.865C372.451 842.441 372.019 842.929 371.475 843.329C370.947 843.713 370.379 844.057 369.771 844.361L368.211 845.177C367.459 845.577 366.899 846.129 366.531 846.833C366.179 847.537 365.987 848.433 365.955 849.521H373.227V851.417ZM387.511 841.457V845.033C387.511 847.209 387.023 848.857 386.047 849.977C385.071 851.097 383.711 851.657 381.967 851.657C380.223 851.657 378.863 851.097 377.887 849.977C376.927 848.857 376.447 847.209 376.447 845.033V841.457C376.447 839.297 376.935 837.657 377.911 836.537C378.887 835.417 380.239 834.857 381.967 834.857C383.711 834.857 385.071 835.417 386.047 836.537C387.023 837.657 387.511 839.297 387.511 841.457ZM385.399 841.457C385.399 839.793 385.095 838.593 384.487 837.857C383.895 837.121 383.055 836.753 381.967 836.753C380.895 836.753 380.055 837.121 379.447 837.857C378.855 838.593 378.559 839.793 378.559 841.457V845.033C378.559 846.681 378.855 847.889 379.447 848.657C380.055 849.409 380.895 849.785 381.967 849.785C383.055 849.785 383.895 849.409 384.487 848.657C385.095 847.889 385.399 846.681 385.399 845.033V841.457ZM399.782 851.417H390.47V849.833C390.47 848.633 390.614 847.625 390.902 846.809C391.206 845.993 391.606 845.321 392.102 844.793C392.614 844.249 393.182 843.817 393.806 843.497L395.366 842.705C396.102 842.321 396.686 841.921 397.118 841.505C397.566 841.089 397.79 840.489 397.79 839.705V839.297C397.79 838.401 397.534 837.753 397.022 837.353C396.526 836.953 395.79 836.753 394.814 836.753C394.27 836.753 393.694 836.825 393.086 836.969C392.478 837.097 391.806 837.321 391.07 837.641L390.398 835.889C391.198 835.521 391.966 835.257 392.702 835.097C393.454 834.937 394.174 834.857 394.862 834.857C396.638 834.857 397.91 835.273 398.678 836.105C399.446 836.921 399.83 837.985 399.83 839.297V839.705C399.83 840.569 399.662 841.289 399.326 841.865C399.006 842.441 398.574 842.929 398.03 843.329C397.502 843.713 396.934 844.057 396.326 844.361L394.766 845.177C394.014 845.577 393.454 846.129 393.086 846.833C392.734 847.537 392.542 848.433 392.51 849.521H399.782V851.417ZM413.466 846.785C413.466 847.745 413.258 848.593 412.842 849.329C412.442 850.049 411.858 850.617 411.09 851.033C410.338 851.449 409.434 851.657 408.378 851.657C406.65 851.657 405.322 851.081 404.394 849.929C403.482 848.761 403.026 847.121 403.026 845.009V841.457C403.026 839.217 403.53 837.561 404.538 836.489C405.562 835.401 406.954 834.857 408.714 834.857C409.338 834.857 410.01 834.937 410.73 835.097C411.45 835.241 412.21 835.497 413.01 835.865L412.266 837.617C411.578 837.297 410.938 837.073 410.346 836.945C409.77 836.817 409.25 836.753 408.786 836.753C407.634 836.753 406.714 837.105 406.026 837.809C405.354 838.513 405.018 839.729 405.018 841.457V842.849C405.578 842.337 406.186 841.937 406.842 841.649C407.498 841.361 408.194 841.217 408.93 841.217C410.338 841.217 411.442 841.665 412.242 842.561C413.058 843.441 413.466 844.609 413.466 846.065V846.785ZM405.018 845.009C405.018 846.609 405.306 847.809 405.882 848.609C406.458 849.393 407.29 849.785 408.378 849.785C409.354 849.785 410.106 849.521 410.634 848.993C411.178 848.449 411.45 847.713 411.45 846.785V846.065C411.45 845.153 411.21 844.425 410.73 843.881C410.25 843.337 409.57 843.065 408.69 843.065C408.018 843.065 407.37 843.209 406.746 843.497C406.138 843.785 405.562 844.185 405.018 844.697V845.009Z" fill="#E3DAB7"/>
<path d="M61.6966 271.781H63.8026V281.661H46.1226V272.041H48.2546V279.399H53.7926V272.821H55.9246V279.399H61.6966V271.781ZM50.9326 259.056L63.8026 263.607V265.608L50.9326 270.211V268.001L57.1986 265.842L61.1246 264.543L57.1986 263.268L50.9326 261.162V259.056ZM63.0486 247.125C63.4299 247.905 63.6899 248.685 63.8286 249.465C63.9846 250.245 64.0626 250.964 64.0626 251.623C64.0626 253.477 63.5339 254.864 62.4766 255.783C61.4193 256.684 59.9719 257.135 58.1346 257.135H56.5746C54.7893 257.135 53.3593 256.684 52.2846 255.783C51.2099 254.864 50.6726 253.573 50.6726 251.909C50.6726 251.025 50.8546 250.219 51.2186 249.491C51.5653 248.745 52.1026 248.156 52.8306 247.723C53.5413 247.272 54.4599 247.047 55.5866 247.047C56.3146 247.047 57.1466 247.151 58.0826 247.359V255.029H58.1346C59.4519 255.029 60.4486 254.76 61.1246 254.223C61.8006 253.668 62.1386 252.784 62.1386 251.571C62.1386 251.016 62.0693 250.409 61.9306 249.751C61.7919 249.075 61.5753 248.416 61.2806 247.775L63.0486 247.125ZM52.5446 251.909C52.5446 252.914 52.8739 253.677 53.5326 254.197C54.1739 254.699 55.0839 254.977 56.2626 255.029V249.205C55.9506 249.153 55.6559 249.127 55.3786 249.127C54.4079 249.127 53.6973 249.404 53.2466 249.959C52.7786 250.496 52.5446 251.146 52.5446 251.909ZM52.8046 236.597C52.8046 237.377 52.9433 238.14 53.2206 238.885C53.4979 239.613 54.0266 240.393 54.8066 241.225H63.8026V243.357H50.9326V241.329H53.0126C52.1459 240.445 51.5393 239.639 51.1926 238.911C50.8459 238.166 50.6726 237.395 50.6726 236.597H52.8046ZM65.1026 229.416C66.6626 229.971 67.7979 230.656 68.5086 231.47C69.2366 232.268 69.6006 233.386 69.6006 234.824H67.4946C67.4773 234.235 67.3993 233.732 67.2606 233.316C67.1219 232.883 66.8359 232.502 66.4026 232.172C65.9866 231.826 65.3626 231.496 64.5306 231.184L63.8806 230.924L50.9326 235.552V233.368L57.1986 231.21L61.2026 229.884L57.1986 228.61L50.9326 226.504V224.398L65.1026 229.416ZM52.6746 209.827C52.6746 210.312 52.8046 210.858 53.0646 211.465C53.3073 212.071 53.7926 212.834 54.5206 213.753H63.8026V215.885H50.9326V213.857H52.7266C51.9639 212.938 51.4353 212.123 51.1406 211.413C50.8286 210.702 50.6726 210 50.6726 209.307C50.6726 208.492 50.8633 207.816 51.2446 207.279C51.6086 206.741 52.1373 206.343 52.8306 206.083C52.0159 205.129 51.4526 204.28 51.1406 203.535C50.8286 202.772 50.6726 202.027 50.6726 201.299C50.6726 200.155 51.0539 199.279 51.8166 198.673C52.5619 198.066 53.6279 197.763 55.0146 197.763H63.8026V199.895H55.3266C53.5586 199.895 52.6746 200.536 52.6746 201.819C52.6746 202.304 52.8046 202.859 53.0646 203.483C53.3073 204.089 53.7926 204.852 54.5206 205.771C54.5899 205.753 54.6679 205.745 54.7546 205.745C54.8413 205.745 54.9279 205.745 55.0146 205.745H63.8026V207.877H55.3266C53.5586 207.877 52.6746 208.527 52.6746 209.827ZM63.9326 183.875C63.9326 184.672 63.7506 185.314 63.3866 185.799C63.0226 186.267 62.5719 186.596 62.0346 186.787C62.7799 187.636 63.3086 188.408 63.6206 189.101C63.9153 189.794 64.0626 190.488 64.0626 191.181C64.0626 192.308 63.6986 193.14 62.9706 193.677C62.2426 194.214 61.3499 194.483 60.2926 194.483C59.5819 194.483 58.9493 194.353 58.3946 194.093C57.8399 193.833 57.4066 193.391 57.0946 192.767C56.7653 192.143 56.6006 191.302 56.6006 190.245C56.6006 189.777 56.6353 189.266 56.7046 188.711C56.7566 188.156 56.8259 187.593 56.9126 187.021H55.1706C54.1999 187.021 53.5413 187.238 53.1946 187.671C52.8306 188.087 52.6486 188.702 52.6486 189.517C52.6486 190.626 52.9519 191.866 53.5586 193.235L51.7906 193.911C51.4266 193.114 51.1493 192.351 50.9586 191.623C50.7679 190.895 50.6726 190.158 50.6726 189.413C50.6726 188.2 50.8719 187.272 51.2706 186.631C51.6693 185.99 52.1979 185.548 52.8566 185.305C53.5153 185.062 54.2346 184.941 55.0146 184.941H60.5786C60.9773 184.941 61.3153 184.863 61.5926 184.707C61.8526 184.551 61.9826 184.239 61.9826 183.771V183.485H63.9326V183.875ZM60.2666 192.377C60.8559 192.377 61.3326 192.238 61.6966 191.961C62.0606 191.684 62.2426 191.285 62.2426 190.765C62.2426 190.314 62.1126 189.794 61.8526 189.205C61.5753 188.616 61.0293 187.888 60.2146 187.021H58.5766C58.3859 188.2 58.2906 189.24 58.2906 190.141C58.2906 190.938 58.4553 191.51 58.7846 191.857C59.1139 192.204 59.6079 192.377 60.2666 192.377ZM56.6006 178.957H58.1346C59.4519 178.957 60.4486 178.714 61.1246 178.229C61.7833 177.743 62.1126 176.972 62.1126 175.915C62.1126 174.875 61.8439 173.757 61.3066 172.561L63.1006 171.911C63.7419 173.332 64.0626 174.71 64.0626 176.045C64.0626 177.709 63.5339 178.974 62.4766 179.841C61.4193 180.707 59.9719 181.141 58.1346 181.141H56.6006C54.7633 181.141 53.3159 180.707 52.2586 179.841C51.2013 178.974 50.6726 177.709 50.6726 176.045C50.6726 175.421 50.7593 174.779 50.9326 174.121C51.0886 173.445 51.3139 172.769 51.6086 172.093L53.4286 172.743C53.1859 173.315 52.9953 173.869 52.8566 174.407C52.7179 174.927 52.6486 175.429 52.6486 175.915C52.6486 176.972 52.9866 177.743 53.6626 178.229C54.3213 178.714 55.3006 178.957 56.6006 178.957ZM52.6746 162.597C52.6746 163.082 52.7959 163.654 53.0386 164.313C53.2813 164.954 53.7753 165.734 54.5206 166.653H63.8026V168.785H44.5626V166.653H52.6486C51.8859 165.752 51.3659 164.937 51.0886 164.209C50.8113 163.481 50.6726 162.77 50.6726 162.077C50.6726 160.881 51.0539 159.971 51.8166 159.347C52.5619 158.706 53.6279 158.385 55.0146 158.385H63.8026V160.517H55.3266C53.5586 160.517 52.6746 161.21 52.6746 162.597ZM47.7866 151.669V154.061H45.3946V151.669H47.7866ZM63.8026 151.799V153.931H50.9326V151.799H63.8026ZM52.6746 141.015C52.6746 141.5 52.7959 142.072 53.0386 142.731C53.2813 143.372 53.7753 144.152 54.5206 145.071H63.8026V147.203H50.9326V145.175H52.7266C51.9466 144.256 51.4093 143.424 51.1146 142.679C50.8199 141.916 50.6726 141.188 50.6726 140.495C50.6726 139.299 51.0539 138.389 51.8166 137.765C52.5619 137.124 53.6279 136.803 55.0146 136.803H63.8026V138.935H55.3266C53.5586 138.935 52.6746 139.628 52.6746 141.015ZM63.0486 123.015C63.4299 123.795 63.6899 124.575 63.8286 125.355C63.9846 126.135 64.0626 126.855 64.0626 127.513C64.0626 129.368 63.5339 130.755 62.4766 131.673C61.4193 132.575 59.9719 133.025 58.1346 133.025H56.5746C54.7893 133.025 53.3593 132.575 52.2846 131.673C51.2099 130.755 50.6726 129.463 50.6726 127.799C50.6726 126.915 50.8546 126.109 51.2186 125.381C51.5653 124.636 52.1026 124.047 52.8306 123.613C53.5413 123.163 54.4599 122.937 55.5866 122.937C56.3146 122.937 57.1466 123.041 58.0826 123.249V130.919H58.1346C59.4519 130.919 60.4486 130.651 61.1246 130.113C61.8006 129.559 62.1386 128.675 62.1386 127.461C62.1386 126.907 62.0693 126.3 61.9306 125.641C61.7919 124.965 61.5753 124.307 61.2806 123.665L63.0486 123.015ZM52.5446 127.799C52.5446 128.805 52.8739 129.567 53.5326 130.087C54.1739 130.59 55.0839 130.867 56.2626 130.919V125.095C55.9506 125.043 55.6559 125.017 55.3786 125.017C54.4079 125.017 53.6973 125.295 53.2466 125.849C52.7786 126.387 52.5446 127.037 52.5446 127.799ZM47.7866 111.324V113.716H45.3946V111.324H47.7866ZM63.8026 111.454V113.586H50.9326V111.454H63.8026ZM62.1646 103.711C62.1646 101.978 61.5753 101.111 60.3966 101.111C59.8939 101.111 59.4953 101.267 59.2006 101.579C58.9059 101.891 58.6546 102.463 58.4466 103.295L58.0826 104.725C57.8226 105.783 57.3719 106.571 56.7306 107.091C56.0719 107.611 55.2919 107.871 54.3906 107.871C53.7319 107.871 53.1253 107.724 52.5706 107.429C51.9986 107.135 51.5393 106.667 51.1926 106.025C50.8459 105.384 50.6726 104.552 50.6726 103.529C50.6726 102.871 50.7506 102.203 50.9066 101.527C51.0453 100.834 51.2879 100.132 51.6346 99.4212L53.4286 100.097C52.8566 101.363 52.5706 102.507 52.5706 103.529C52.5706 105.037 53.1339 105.791 54.2606 105.791C54.6939 105.791 55.0666 105.653 55.3786 105.375C55.6906 105.098 55.9419 104.578 56.1326 103.815L56.4966 102.385C56.7739 101.241 57.2246 100.401 57.8486 99.8632C58.4726 99.3258 59.2786 99.0572 60.2666 99.0572C60.9773 99.0572 61.6273 99.2132 62.2166 99.5252C62.7886 99.8198 63.2393 100.305 63.5686 100.981C63.8979 101.64 64.0626 102.533 64.0626 103.659C64.0626 104.405 63.9846 105.15 63.8286 105.895C63.6726 106.623 63.4213 107.377 63.0746 108.157L61.3066 107.585C61.6013 106.84 61.8179 106.164 61.9566 105.557C62.0953 104.951 62.1646 104.335 62.1646 103.711ZM63.9326 80.5858C63.9326 81.3831 63.7506 82.0245 63.3866 82.5098C63.0226 82.9778 62.5719 83.3071 62.0346 83.4978C62.7799 84.3471 63.3086 85.1185 63.6206 85.8118C63.9153 86.5051 64.0626 87.1985 64.0626 87.8918C64.0626 89.0185 63.6986 89.8505 62.9706 90.3878C62.2426 90.9251 61.3499 91.1938 60.2926 91.1938C59.5819 91.1938 58.9493 91.0638 58.3946 90.8038C57.8399 90.5438 57.4066 90.1018 57.0946 89.4778C56.7653 88.8538 56.6006 88.0131 56.6006 86.9558C56.6006 86.4878 56.6353 85.9765 56.7046 85.4218C56.7566 84.8671 56.8259 84.3038 56.9126 83.7318H55.1706C54.1999 83.7318 53.5413 83.9485 53.1946 84.3818C52.8306 84.7978 52.6486 85.4131 52.6486 86.2278C52.6486 87.3371 52.9519 88.5765 53.5586 89.9458L51.7906 90.6218C51.4266 89.8245 51.1493 89.0618 50.9586 88.3338C50.7679 87.6058 50.6726 86.8691 50.6726 86.1238C50.6726 84.9105 50.8719 83.9831 51.2706 83.3418C51.6693 82.7005 52.1979 82.2585 52.8566 82.0158C53.5153 81.7731 54.2346 81.6518 55.0146 81.6518H60.5786C60.9773 81.6518 61.3153 81.5738 61.5926 81.4178C61.8526 81.2618 61.9826 80.9498 61.9826 80.4818V80.1958H63.9326V80.5858ZM60.2666 89.0878C60.8559 89.0878 61.3326 88.9491 61.6966 88.6718C62.0606 88.3945 62.2426 87.9958 62.2426 87.4758C62.2426 87.0251 62.1126 86.5051 61.8526 85.9158C61.5753 85.3265 61.0293 84.5985 60.2146 83.7318H58.5766C58.3859 84.9105 58.2906 85.9505 58.2906 86.8518C58.2906 87.6491 58.4553 88.2211 58.7846 88.5678C59.1139 88.9145 59.6079 89.0878 60.2666 89.0878ZM62.1646 68.3674C62.1646 66.6341 61.5753 65.7674 60.3966 65.7674C59.8939 65.7674 59.4953 65.9234 59.2006 66.2354C58.9059 66.5474 58.6546 67.1194 58.4466 67.9514L58.0826 69.3814C57.8226 70.4388 57.3719 71.2274 56.7306 71.7474C56.0719 72.2674 55.2919 72.5274 54.3906 72.5274C53.7319 72.5274 53.1253 72.3801 52.5706 72.0854C51.9986 71.7908 51.5393 71.3228 51.1926 70.6814C50.8459 70.0401 50.6726 69.2081 50.6726 68.1854C50.6726 67.5268 50.7506 66.8594 50.9066 66.1834C51.0453 65.4901 51.2879 64.7881 51.6346 64.0774L53.4286 64.7534C52.8566 66.0188 52.5706 67.1628 52.5706 68.1854C52.5706 69.6934 53.1339 70.4474 54.2606 70.4474C54.6939 70.4474 55.0666 70.3088 55.3786 70.0314C55.6906 69.7541 55.9419 69.2341 56.1326 68.4714L56.4966 67.0414C56.7739 65.8974 57.2246 65.0568 57.8486 64.5194C58.4726 63.9821 59.2786 63.7134 60.2666 63.7134C60.9773 63.7134 61.6273 63.8694 62.2166 64.1814C62.7886 64.4761 63.2393 64.9614 63.5686 65.6374C63.8979 66.2961 64.0626 67.1888 64.0626 68.3154C64.0626 69.0608 63.9846 69.8061 63.8286 70.5514C63.6726 71.2794 63.4213 72.0334 63.0746 72.8134L61.3066 72.2414C61.6013 71.4961 61.8179 70.8201 61.9566 70.2134C62.0953 69.6068 62.1646 68.9914 62.1646 68.3674ZM52.6746 54.2582C52.6746 54.7435 52.8046 55.2895 53.0646 55.8962C53.3073 56.5028 53.7926 57.2655 54.5206 58.1842H63.8026V60.3162H50.9326V58.2882H52.7266C51.9639 57.3695 51.4353 56.5548 51.1406 55.8442C50.8286 55.1335 50.6726 54.4315 50.6726 53.7382C50.6726 52.9235 50.8633 52.2475 51.2446 51.7102C51.6086 51.1728 52.1373 50.7742 52.8306 50.5142C52.0159 49.5608 51.4526 48.7115 51.1406 47.9662C50.8286 47.2035 50.6726 46.4582 50.6726 45.7302C50.6726 44.5862 51.0539 43.7108 51.8166 43.1042C52.5619 42.4975 53.6279 42.1942 55.0146 42.1942H63.8026V44.3262H55.3266C53.5586 44.3262 52.6746 44.9675 52.6746 46.2502C52.6746 46.7355 52.8046 47.2902 53.0646 47.9142C53.3073 48.5208 53.7926 49.2835 54.5206 50.2022C54.5899 50.1848 54.6679 50.1762 54.7546 50.1762C54.8413 50.1762 54.9279 50.1762 55.0146 50.1762H63.8026V52.3082H55.3266C53.5586 52.3082 52.6746 52.9582 52.6746 54.2582ZM56.5746 27.5265H58.1346C59.9719 27.5265 61.4193 28.0032 62.4766 28.9565C63.5339 29.8925 64.0626 31.2358 64.0626 32.9865C64.0626 34.7198 63.5339 36.0632 62.4766 37.0165C61.4193 37.9698 59.9719 38.4465 58.1346 38.4465H56.5746C54.7719 38.4465 53.3419 37.9785 52.2846 37.0425C51.2099 36.0892 50.6726 34.7372 50.6726 32.9865C50.6726 31.2358 51.2099 29.8925 52.2846 28.9565C53.3419 28.0032 54.7719 27.5265 56.5746 27.5265ZM56.5746 29.7365C55.3439 29.7365 54.3819 30.0138 53.6886 30.5685C52.9779 31.1232 52.6226 31.9292 52.6226 32.9865C52.6226 34.0265 52.9779 34.8325 53.6886 35.4045C54.3819 35.9592 55.3439 36.2365 56.5746 36.2365H58.1346C59.4173 36.2365 60.4053 35.9592 61.0986 35.4045C61.7919 34.8325 62.1386 34.0265 62.1386 32.9865C62.1386 31.9292 61.7919 31.1232 61.0986 30.5685C60.4053 30.0138 59.4173 29.7365 58.1346 29.7365H56.5746ZM63.8026 15.7221L57.8486 19.3361C58.1779 19.6654 58.5159 20.0121 58.8626 20.3761C59.2093 20.7401 59.5559 21.1214 59.9026 21.5201H63.8026V23.6521H44.5626V21.5201H57.5106C56.4186 20.3934 55.3526 19.3968 54.3126 18.5301C53.2726 17.6461 52.1459 16.8401 50.9326 16.1121V13.6681C51.9726 14.2921 52.9346 14.9334 53.8186 15.5921C54.6853 16.2334 55.5693 16.9614 56.4706 17.7761L63.8026 13.1481V15.7221ZM63.0486 1.41966C63.4299 2.19966 63.6899 2.97966 63.8286 3.75966C63.9846 4.53966 64.0626 5.25899 64.0626 5.91766C64.0626 7.77232 63.5339 9.15899 62.4766 10.0777C61.4193 10.979 59.9719 11.4297 58.1346 11.4297H56.5746C54.7893 11.4297 53.3593 10.979 52.2846 10.0777C51.2099 9.15899 50.6726 7.86766 50.6726 6.20366C50.6726 5.31966 50.8546 4.51366 51.2186 3.78566C51.5653 3.04032 52.1026 2.45099 52.8306 2.01766C53.5413 1.56699 54.4599 1.34166 55.5866 1.34166C56.3146 1.34166 57.1466 1.44566 58.0826 1.65366V9.32366H58.1346C59.4519 9.32366 60.4486 9.05499 61.1246 8.51766C61.8006 7.96299 62.1386 7.07899 62.1386 5.86566C62.1386 5.31099 62.0693 4.70432 61.9306 4.04566C61.7919 3.36966 61.5753 2.71099 61.2806 2.06966L63.0486 1.41966ZM52.5446 6.20366C52.5446 7.20899 52.8739 7.97166 53.5326 8.49166C54.1739 8.99432 55.0839 9.27166 56.2626 9.32366V3.49966C55.9506 3.44766 55.6559 3.42166 55.3786 3.42166C54.4079 3.42166 53.6973 3.69899 53.2466 4.25366C52.7786 4.79099 52.5446 5.44099 52.5446 6.20366ZM83.6746 270.409C83.6746 270.894 83.8046 271.44 84.0646 272.047C84.3073 272.653 84.7926 273.416 85.5206 274.335H94.8026V276.467H81.9326V274.439H83.7266C82.9639 273.52 82.4353 272.705 82.1406 271.995C81.8286 271.284 81.6726 270.582 81.6726 269.889C81.6726 269.074 81.8633 268.398 82.2446 267.861C82.6086 267.323 83.1373 266.925 83.8306 266.665C83.0159 265.711 82.4526 264.862 82.1406 264.117C81.8286 263.354 81.6726 262.609 81.6726 261.881C81.6726 260.737 82.0539 259.861 82.8166 259.255C83.5619 258.648 84.6279 258.345 86.0146 258.345H94.8026V260.477H86.3266C84.5586 260.477 83.6746 261.118 83.6746 262.401C83.6746 262.886 83.8046 263.441 84.0646 264.065C84.3073 264.671 84.7926 265.434 85.5206 266.353C85.5899 266.335 85.6679 266.327 85.7546 266.327C85.8413 266.327 85.9279 266.327 86.0146 266.327H94.8026V268.459H86.3266C84.5586 268.459 83.6746 269.109 83.6746 270.409ZM94.9326 244.457C94.9326 245.254 94.7506 245.896 94.3866 246.381C94.0226 246.849 93.5719 247.178 93.0346 247.369C93.7799 248.218 94.3086 248.99 94.6206 249.683C94.9153 250.376 95.0626 251.07 95.0626 251.763C95.0626 252.89 94.6986 253.722 93.9706 254.259C93.2426 254.796 92.3499 255.065 91.2926 255.065C90.5819 255.065 89.9493 254.935 89.3946 254.675C88.8399 254.415 88.4066 253.973 88.0946 253.349C87.7653 252.725 87.6006 251.884 87.6006 250.827C87.6006 250.359 87.6353 249.848 87.7046 249.293C87.7566 248.738 87.8259 248.175 87.9126 247.603H86.1706C85.1999 247.603 84.5413 247.82 84.1946 248.253C83.8306 248.669 83.6486 249.284 83.6486 250.099C83.6486 251.208 83.9519 252.448 84.5586 253.817L82.7906 254.493C82.4266 253.696 82.1493 252.933 81.9586 252.205C81.7679 251.477 81.6726 250.74 81.6726 249.995C81.6726 248.782 81.8719 247.854 82.2706 247.213C82.6693 246.572 83.1979 246.13 83.8566 245.887C84.5153 245.644 85.2346 245.523 86.0146 245.523H91.5786C91.9773 245.523 92.3153 245.445 92.5926 245.289C92.8526 245.133 92.9826 244.821 92.9826 244.353V244.067H94.9326V244.457ZM91.2666 252.959C91.8559 252.959 92.3326 252.82 92.6966 252.543C93.0606 252.266 93.2426 251.867 93.2426 251.347C93.2426 250.896 93.1126 250.376 92.8526 249.787C92.5753 249.198 92.0293 248.47 91.2146 247.603H89.5766C89.3859 248.782 89.2906 249.822 89.2906 250.723C89.2906 251.52 89.4553 252.092 89.7846 252.439C90.1139 252.786 90.6079 252.959 91.2666 252.959ZM87.6006 239.539H89.1346C90.4519 239.539 91.4486 239.296 92.1246 238.811C92.7833 238.325 93.1126 237.554 93.1126 236.497C93.1126 235.457 92.8439 234.339 92.3066 233.143L94.1006 232.493C94.7419 233.914 95.0626 235.292 95.0626 236.627C95.0626 238.291 94.5339 239.556 93.4766 240.423C92.4193 241.289 90.9719 241.723 89.1346 241.723H87.6006C85.7633 241.723 84.3159 241.289 83.2586 240.423C82.2013 239.556 81.6726 238.291 81.6726 236.627C81.6726 236.003 81.7593 235.361 81.9326 234.703C82.0886 234.027 82.3139 233.351 82.6086 232.675L84.4286 233.325C84.1859 233.897 83.9953 234.451 83.8566 234.989C83.7179 235.509 83.6486 236.011 83.6486 236.497C83.6486 237.554 83.9866 238.325 84.6626 238.811C85.3213 239.296 86.3006 239.539 87.6006 239.539ZM83.6746 223.179C83.6746 223.664 83.7959 224.236 84.0386 224.895C84.2813 225.536 84.7753 226.316 85.5206 227.235H94.8026V229.367H75.5626V227.235H83.6486C82.8859 226.334 82.3659 225.519 82.0886 224.791C81.8113 224.063 81.6726 223.352 81.6726 222.659C81.6726 221.463 82.0539 220.553 82.8166 219.929C83.5619 219.288 84.6279 218.967 86.0146 218.967H94.8026V221.099H86.3266C84.5586 221.099 83.6746 221.792 83.6746 223.179ZM78.7866 212.251V214.643H76.3946V212.251H78.7866ZM94.8026 212.381V214.513H81.9326V212.381H94.8026ZM83.6746 201.597C83.6746 202.082 83.7959 202.654 84.0386 203.313C84.2813 203.954 84.7753 204.734 85.5206 205.653H94.8026V207.785H81.9326V205.757H83.7266C82.9466 204.838 82.4093 204.006 82.1146 203.261C81.8199 202.498 81.6726 201.77 81.6726 201.077C81.6726 199.881 82.0539 198.971 82.8166 198.347C83.5619 197.706 84.6279 197.385 86.0146 197.385H94.8026V199.517H86.3266C84.5586 199.517 83.6746 200.21 83.6746 201.597ZM94.0486 183.597C94.4299 184.377 94.6899 185.157 94.8286 185.937C94.9846 186.717 95.0626 187.437 95.0626 188.095C95.0626 189.95 94.5339 191.337 93.4766 192.255C92.4193 193.157 90.9719 193.607 89.1346 193.607H87.5746C85.7893 193.607 84.3593 193.157 83.2846 192.255C82.2099 191.337 81.6726 190.045 81.6726 188.381C81.6726 187.497 81.8546 186.691 82.2186 185.963C82.5653 185.218 83.1026 184.629 83.8306 184.195C84.5413 183.745 85.4599 183.519 86.5866 183.519C87.3146 183.519 88.1466 183.623 89.0826 183.831V191.501H89.1346C90.4519 191.501 91.4486 191.233 92.1246 190.695C92.8006 190.141 93.1386 189.257 93.1386 188.043C93.1386 187.489 93.0693 186.882 92.9306 186.223C92.7919 185.547 92.5753 184.889 92.2806 184.247L94.0486 183.597ZM83.5446 188.381C83.5446 189.387 83.8739 190.149 84.5326 190.669C85.1739 191.172 86.0839 191.449 87.2626 191.501V185.677C86.9506 185.625 86.6559 185.599 86.3786 185.599C85.4079 185.599 84.6973 185.877 84.2466 186.431C83.7786 186.969 83.5446 187.619 83.5446 188.381ZM78.7866 171.906V174.298H76.3946V171.906H78.7866ZM94.8026 172.036V174.168H81.9326V172.036H94.8026ZM83.8046 160.679V164.891H94.8026V167.023H83.8046V169.259H81.9326V167.023H79.8006C79.0033 167.023 78.2666 166.893 77.5906 166.633C76.8973 166.356 76.3426 165.914 75.9266 165.307C75.5106 164.701 75.3026 163.895 75.3026 162.889C75.3026 162.387 75.3633 161.858 75.4846 161.303C75.5886 160.731 75.7533 160.203 75.9786 159.717L77.7726 160.315C77.4259 161.199 77.2526 161.971 77.2526 162.629C77.2526 163.357 77.4519 163.921 77.8506 164.319C78.2493 164.701 78.8906 164.891 79.7746 164.891H81.9326V160.679H83.8046ZM96.1026 148.293C97.6626 148.848 98.7979 149.533 99.5086 150.347C100.237 151.145 100.601 152.263 100.601 153.701H98.4946C98.4773 153.112 98.3993 152.609 98.2606 152.193C98.1219 151.76 97.8359 151.379 97.4026 151.049C96.9866 150.703 96.3626 150.373 95.5306 150.061L94.8806 149.801L81.9326 154.429V152.245L88.1986 150.087L92.2026 148.761L88.1986 147.487L81.9326 145.381V143.275L96.1026 148.293ZM87.5746 130.485H89.1346C90.9719 130.485 92.4193 130.962 93.4766 131.915C94.5339 132.851 95.0626 134.195 95.0626 135.945C95.0626 137.679 94.5339 139.022 93.4766 139.975C92.4193 140.929 90.9719 141.405 89.1346 141.405H87.5746C85.7719 141.405 84.3419 140.937 83.2846 140.001C82.2099 139.048 81.6726 137.696 81.6726 135.945C81.6726 134.195 82.2099 132.851 83.2846 131.915C84.3419 130.962 85.7719 130.485 87.5746 130.485ZM87.5746 132.695C86.3439 132.695 85.3819 132.973 84.6886 133.527C83.9779 134.082 83.6226 134.888 83.6226 135.945C83.6226 136.985 83.9779 137.791 84.6886 138.363C85.3819 138.918 86.3439 139.195 87.5746 139.195H89.1346C90.4173 139.195 91.4053 138.918 92.0986 138.363C92.7919 137.791 93.1386 136.985 93.1386 135.945C93.1386 134.888 92.7919 134.082 92.0986 133.527C91.4053 132.973 90.4173 132.695 89.1346 132.695H87.5746ZM94.8026 118.681H92.9826C93.7626 119.582 94.3086 120.388 94.6206 121.099C94.9153 121.81 95.0626 122.52 95.0626 123.231C95.0626 124.375 94.6899 125.25 93.9446 125.857C93.1819 126.464 92.1159 126.767 90.7466 126.767H81.9326V124.635H90.4346C91.3359 124.635 92.0033 124.479 92.4366 124.167C92.8526 123.838 93.0606 123.352 93.0606 122.711C93.0606 122.226 92.9393 121.68 92.6966 121.073C92.4539 120.466 91.9686 119.712 91.2406 118.811H81.9326V116.679H94.8026V118.681ZM87.5746 96.2335H89.1346C90.9719 96.2335 92.4193 96.7102 93.4766 97.6635C94.5339 98.5995 95.0626 99.9429 95.0626 101.694C95.0626 103.427 94.5339 104.77 93.4766 105.724C92.4193 106.677 90.9719 107.154 89.1346 107.154H87.5746C85.7719 107.154 84.3419 106.686 83.2846 105.75C82.2099 104.796 81.6726 103.444 81.6726 101.694C81.6726 99.9429 82.2099 98.5995 83.2846 97.6635C84.3419 96.7102 85.7719 96.2335 87.5746 96.2335ZM87.5746 98.4435C86.3439 98.4435 85.3819 98.7209 84.6886 99.2755C83.9779 99.8302 83.6226 100.636 83.6226 101.694C83.6226 102.734 83.9779 103.54 84.6886 104.112C85.3819 104.666 86.3439 104.944 87.5746 104.944H89.1346C90.4173 104.944 91.4053 104.666 92.0986 104.112C92.7919 103.54 93.1386 102.734 93.1386 101.694C93.1386 100.636 92.7919 99.8302 92.0986 99.2755C91.4053 98.7209 90.4173 98.4435 89.1346 98.4435H87.5746ZM95.0626 87.2111C95.0626 88.1818 94.8633 89.1871 94.4646 90.2271H100.341V92.3591H81.9326V90.3311H83.7526C82.9899 89.5338 82.4526 88.8058 82.1406 88.1471C81.8286 87.4885 81.6726 86.8125 81.6726 86.1191C81.6726 84.7498 82.1926 83.7011 83.2326 82.9731C84.2726 82.2278 85.7373 81.8551 87.6266 81.8551H89.1346C90.9373 81.8551 92.3759 82.3145 93.4506 83.2331C94.5253 84.1345 95.0626 85.4605 95.0626 87.2111ZM83.6746 86.6391C83.6746 87.1418 83.8046 87.6618 84.0646 88.1991C84.3246 88.7365 84.8533 89.4125 85.6506 90.2271H92.5146C92.7399 89.7245 92.9046 89.2391 93.0086 88.7711C93.0953 88.3031 93.1386 87.8438 93.1386 87.3931C93.1386 86.2145 92.7833 85.3651 92.0726 84.8451C91.3446 84.3251 90.3653 84.0651 89.1346 84.0651H87.6266C86.2746 84.0651 85.2779 84.2818 84.6366 84.7151C83.9953 85.1311 83.6746 85.7725 83.6746 86.6391ZM94.0486 68.5779C94.4299 69.3579 94.6899 70.1379 94.8286 70.9179C94.9846 71.6979 95.0626 72.4172 95.0626 73.0759C95.0626 74.9305 94.5339 76.3172 93.4766 77.2359C92.4193 78.1372 90.9719 78.5879 89.1346 78.5879H87.5746C85.7893 78.5879 84.3593 78.1372 83.2846 77.2359C82.2099 76.3172 81.6726 75.0259 81.6726 73.3619C81.6726 72.4779 81.8546 71.6719 82.2186 70.9439C82.5653 70.1985 83.1026 69.6092 83.8306 69.1759C84.5413 68.7252 85.4599 68.4999 86.5866 68.4999C87.3146 68.4999 88.1466 68.6039 89.0826 68.8119V76.4819H89.1346C90.4519 76.4819 91.4486 76.2132 92.1246 75.6759C92.8006 75.1212 93.1386 74.2372 93.1386 73.0239C93.1386 72.4692 93.0693 71.8625 92.9306 71.2039C92.7919 70.5279 92.5753 69.8692 92.2806 69.2279L94.0486 68.5779ZM83.5446 73.3619C83.5446 74.3672 83.8739 75.1299 84.5326 75.6499C85.1739 76.1525 86.0839 76.4299 87.2626 76.4819V70.6579C86.9506 70.6059 86.6559 70.5799 86.3786 70.5799C85.4079 70.5799 84.6973 70.8572 84.2466 71.4119C83.7786 71.9492 83.5446 72.5992 83.5446 73.3619ZM83.8046 58.0503C83.8046 58.8303 83.9433 59.593 84.2206 60.3383C84.4979 61.0663 85.0266 61.8463 85.8066 62.6783H94.8026V64.8103H81.9326V62.7823H84.0126C83.1459 61.8983 82.5393 61.0923 82.1926 60.3643C81.8459 59.619 81.6726 58.8476 81.6726 58.0503H83.8046ZM94.9326 45.8514C94.9326 46.6488 94.7506 47.2901 94.3866 47.7754C94.0226 48.2434 93.5719 48.5728 93.0346 48.7634C93.7799 49.6128 94.3086 50.3841 94.6206 51.0774C94.9153 51.7708 95.0626 52.4641 95.0626 53.1574C95.0626 54.2841 94.6986 55.1161 93.9706 55.6534C93.2426 56.1908 92.3499 56.4594 91.2926 56.4594C90.5819 56.4594 89.9493 56.3294 89.3946 56.0694C88.8399 55.8094 88.4066 55.3674 88.0946 54.7434C87.7653 54.1194 87.6006 53.2788 87.6006 52.2214C87.6006 51.7534 87.6353 51.2421 87.7046 50.6874C87.7566 50.1328 87.8259 49.5694 87.9126 48.9974H86.1706C85.1999 48.9974 84.5413 49.2141 84.1946 49.6474C83.8306 50.0634 83.6486 50.6788 83.6486 51.4934C83.6486 52.6028 83.9519 53.8421 84.5586 55.2114L82.7906 55.8874C82.4266 55.0901 82.1493 54.3274 81.9586 53.5994C81.7679 52.8714 81.6726 52.1348 81.6726 51.3894C81.6726 50.1761 81.8719 49.2488 82.2706 48.6074C82.6693 47.9661 83.1979 47.5241 83.8566 47.2814C84.5153 47.0388 85.2346 46.9174 86.0146 46.9174H91.5786C91.9773 46.9174 92.3153 46.8394 92.5926 46.6834C92.8526 46.5274 92.9826 46.2154 92.9826 45.7474V45.4614H94.9326V45.8514ZM91.2666 54.3534C91.8559 54.3534 92.3326 54.2148 92.6966 53.9374C93.0606 53.6601 93.2426 53.2614 93.2426 52.7414C93.2426 52.2908 93.1126 51.7708 92.8526 51.1814C92.5753 50.5921 92.0293 49.8641 91.2146 48.9974H89.5766C89.3859 50.1761 89.2906 51.2161 89.2906 52.1174C89.2906 52.9148 89.4553 53.4868 89.7846 53.8334C90.1139 54.1801 90.6079 54.3534 91.2666 54.3534ZM94.3346 35.3692C94.8199 36.3398 95.0626 37.3712 95.0626 38.4632C95.0626 39.3992 94.8719 40.1358 94.4906 40.6732C94.1093 41.1932 93.5979 41.5658 92.9566 41.7912C92.3153 41.9992 91.6046 42.1032 90.8246 42.1032H83.8046V44.3392H81.9326V42.1032H78.3446V39.9712H81.9326V35.7592H83.8046V39.9712H90.7466C91.6479 39.9712 92.2719 39.8238 92.6186 39.5292C92.9479 39.2172 93.1126 38.7405 93.1126 38.0992C93.1126 37.7872 93.0779 37.4665 93.0086 37.1372C92.9219 36.7905 92.7833 36.4178 92.5926 36.0192L94.3346 35.3692ZM94.0486 23.2302C94.4299 24.0102 94.6899 24.7902 94.8286 25.5702C94.9846 26.3502 95.0626 27.0695 95.0626 27.7282C95.0626 29.5829 94.5339 30.9695 93.4766 31.8882C92.4193 32.7895 90.9719 33.2402 89.1346 33.2402H87.5746C85.7893 33.2402 84.3593 32.7895 83.2846 31.8882C82.2099 30.9695 81.6726 29.6782 81.6726 28.0142C81.6726 27.1302 81.8546 26.3242 82.2186 25.5962C82.5653 24.8509 83.1026 24.2615 83.8306 23.8282C84.5413 23.3775 85.4599 23.1522 86.5866 23.1522C87.3146 23.1522 88.1466 23.2562 89.0826 23.4642V31.1342H89.1346C90.4519 31.1342 91.4486 30.8655 92.1246 30.3282C92.8006 29.7735 93.1386 28.8895 93.1386 27.6762C93.1386 27.1215 93.0693 26.5149 92.9306 25.8562C92.7919 25.1802 92.5753 24.5215 92.2806 23.8802L94.0486 23.2302ZM83.5446 28.0142C83.5446 29.0195 83.8739 29.7822 84.5326 30.3022C85.1739 30.8049 86.0839 31.0822 87.2626 31.1342V25.3102C86.9506 25.2582 86.6559 25.2322 86.3786 25.2322C85.4079 25.2322 84.6973 25.5095 84.2466 26.0642C83.7786 26.6015 83.5446 27.2515 83.5446 28.0142ZM78.7866 11.5385V13.9305H76.3946V11.5385H78.7866ZM94.8026 11.6685V13.8005H81.9326V11.6685H94.8026ZM94.3346 1.54972e-05C94.8199 0.970682 95.0626 2.00202 95.0626 3.09402C95.0626 4.03002 94.8719 4.76668 94.4906 5.30402C94.1093 5.82402 93.5979 6.19668 92.9566 6.42202C92.3153 6.63002 91.6046 6.73402 90.8246 6.73402H83.8046V8.97002H81.9326V6.73402H78.3446V4.60202H81.9326V0.390015H83.8046V4.60202H90.7466C91.6479 4.60202 92.2719 4.45468 92.6186 4.16002C92.9479 3.84802 93.1126 3.37135 93.1126 2.73002C93.1126 2.41802 93.0779 2.09735 93.0086 1.76802C92.9219 1.42135 92.7833 1.04868 92.5926 0.650016L94.3346 1.54972e-05ZM112.933 260.945L125.803 264.247V266.717L115.247 269.421L125.803 272.203V274.673L112.933 277.949V275.765L118.315 274.465L123.645 273.295L112.933 270.513V268.251L123.697 265.469L118.341 264.325L112.933 263.051V260.945ZM114.805 251.095C114.805 251.875 114.943 252.638 115.221 253.383C115.498 254.111 116.027 254.891 116.807 255.723H125.803V257.855H112.933V255.827H115.013C114.146 254.943 113.539 254.137 113.193 253.409C112.846 252.664 112.673 251.893 112.673 251.095H114.805ZM118.575 238.116H120.135C121.972 238.116 123.419 238.593 124.477 239.546C125.534 240.482 126.063 241.826 126.063 243.576C126.063 245.31 125.534 246.653 124.477 247.606C123.419 248.56 121.972 249.036 120.135 249.036H118.575C116.772 249.036 115.342 248.568 114.285 247.632C113.21 246.679 112.673 245.327 112.673 243.576C112.673 241.826 113.21 240.482 114.285 239.546C115.342 238.593 116.772 238.116 118.575 238.116ZM118.575 240.326C117.344 240.326 116.382 240.604 115.689 241.158C114.978 241.713 114.623 242.519 114.623 243.576C114.623 244.616 114.978 245.422 115.689 245.994C116.382 246.549 117.344 246.826 118.575 246.826H120.135C121.417 246.826 122.405 246.549 123.099 245.994C123.792 245.422 124.139 244.616 124.139 243.576C124.139 242.519 123.792 241.713 123.099 241.158C122.405 240.604 121.417 240.326 120.135 240.326H118.575ZM114.675 228.054C114.675 228.539 114.796 229.111 115.039 229.77C115.281 230.411 115.775 231.191 116.521 232.11H125.803V234.242H112.933V232.214H114.727C113.947 231.295 113.409 230.463 113.115 229.718C112.82 228.955 112.673 228.227 112.673 227.534C112.673 226.338 113.054 225.428 113.817 224.804C114.562 224.163 115.628 223.842 117.015 223.842H125.803V225.974H117.327C115.559 225.974 114.675 226.667 114.675 228.054ZM127.415 209.092C128.68 209.092 129.694 209.612 130.457 210.652C131.219 211.675 131.601 213.088 131.601 214.89C131.601 215.792 131.479 216.736 131.237 217.724C130.994 218.695 130.604 219.614 130.067 220.48L128.403 219.752C128.888 218.886 129.226 218.054 129.417 217.256C129.625 216.442 129.729 215.653 129.729 214.89C129.729 213.712 129.538 212.802 129.157 212.16C128.775 211.519 128.264 211.198 127.623 211.198C127.155 211.198 126.791 211.354 126.531 211.666C126.288 211.978 126.167 212.481 126.167 213.174V216.164C126.167 217.291 125.898 218.106 125.361 218.608C124.823 219.111 124.234 219.362 123.593 219.362C123.142 219.362 122.7 219.258 122.267 219.05C121.816 218.842 121.374 218.548 120.941 218.166C120.577 218.773 120.083 219.258 119.459 219.622C118.817 219.986 118.046 220.168 117.145 220.168C116.157 220.168 115.333 219.96 114.675 219.544C114.016 219.111 113.522 218.539 113.193 217.828C112.846 217.118 112.673 216.32 112.673 215.436V214.994C112.673 214.388 112.759 213.833 112.933 213.33V208.702H114.831L114.441 211.51C114.753 211.146 115.143 210.852 115.611 210.626C116.061 210.401 116.616 210.288 117.275 210.288C118.211 210.288 118.999 210.505 119.641 210.938C120.282 211.354 120.776 211.918 121.123 212.628C121.452 213.339 121.617 214.128 121.617 214.994V215.436C121.617 215.662 121.608 215.878 121.591 216.086C121.556 216.294 121.521 216.502 121.487 216.71C122.041 217.213 122.587 217.464 123.125 217.464C123.818 217.464 124.165 216.979 124.165 216.008V213.096C124.165 211.848 124.442 210.869 124.997 210.158C125.551 209.448 126.357 209.092 127.415 209.092ZM119.771 214.994C119.771 214.318 119.554 213.72 119.121 213.2C118.687 212.68 118.029 212.42 117.145 212.42C116.278 212.42 115.628 212.68 115.195 213.2C114.744 213.72 114.519 214.318 114.519 214.994V215.436C114.519 216.13 114.744 216.736 115.195 217.256C115.628 217.776 116.278 218.036 117.145 218.036C118.029 218.036 118.687 217.776 119.121 217.256C119.554 216.736 119.771 216.13 119.771 215.436V214.994ZM125.049 190.884C125.43 191.664 125.69 192.444 125.829 193.224C125.985 194.004 126.063 194.724 126.063 195.382C126.063 197.237 125.534 198.624 124.477 199.543C123.419 200.444 121.972 200.895 120.135 200.895H118.575C116.789 200.895 115.359 200.444 114.285 199.543C113.21 198.624 112.673 197.332 112.673 195.668C112.673 194.784 112.855 193.979 113.219 193.251C113.565 192.505 114.103 191.916 114.831 191.482C115.541 191.032 116.46 190.806 117.587 190.806C118.315 190.806 119.147 190.91 120.083 191.118V198.789H120.135C121.452 198.789 122.449 198.52 123.125 197.982C123.801 197.428 124.139 196.544 124.139 195.33C124.139 194.776 124.069 194.169 123.931 193.51C123.792 192.834 123.575 192.176 123.281 191.534L125.049 190.884ZM114.545 195.668C114.545 196.674 114.874 197.436 115.533 197.956C116.174 198.459 117.084 198.736 118.263 198.789V192.964C117.951 192.913 117.656 192.887 117.379 192.887C116.408 192.887 115.697 193.164 115.247 193.718C114.779 194.256 114.545 194.906 114.545 195.668ZM114.675 180.929C114.675 181.414 114.796 181.986 115.039 182.645C115.281 183.286 115.775 184.066 116.521 184.985H125.803V187.117H112.933V185.089H114.727C113.947 184.17 113.409 183.338 113.115 182.593C112.82 181.83 112.673 181.102 112.673 180.409C112.673 179.213 113.054 178.303 113.817 177.679C114.562 177.038 115.628 176.717 117.015 176.717H125.803V178.849H117.327C115.559 178.849 114.675 179.542 114.675 180.929ZM118.575 162.071H120.135C121.972 162.071 123.419 162.548 124.477 163.501C125.534 164.437 126.063 165.781 126.063 167.531C126.063 169.265 125.534 170.608 124.477 171.561C123.419 172.515 121.972 172.991 120.135 172.991H118.575C116.772 172.991 115.342 172.523 114.285 171.587C113.21 170.634 112.673 169.282 112.673 167.531C112.673 165.781 113.21 164.437 114.285 163.501C115.342 162.548 116.772 162.071 118.575 162.071ZM118.575 164.281C117.344 164.281 116.382 164.559 115.689 165.113C114.978 165.668 114.623 166.474 114.623 167.531C114.623 168.571 114.978 169.377 115.689 169.949C116.382 170.504 117.344 170.781 118.575 170.781H120.135C121.417 170.781 122.405 170.504 123.099 169.949C123.792 169.377 124.139 168.571 124.139 167.531C124.139 166.474 123.792 165.668 123.099 165.113C122.405 164.559 121.417 164.281 120.135 164.281H118.575ZM125.803 150.267H123.983C124.763 151.168 125.309 151.974 125.621 152.685C125.915 153.396 126.063 154.106 126.063 154.817C126.063 155.961 125.69 156.836 124.945 157.443C124.182 158.05 123.116 158.353 121.747 158.353H112.933V156.221H121.435C122.336 156.221 123.003 156.065 123.437 155.753C123.853 155.424 124.061 154.938 124.061 154.297C124.061 153.812 123.939 153.266 123.697 152.659C123.454 152.052 122.969 151.298 122.241 150.397H112.933V148.265H125.803V150.267ZM127.415 133.378C128.68 133.378 129.694 133.898 130.457 134.938C131.219 135.96 131.601 137.373 131.601 139.176C131.601 140.077 131.479 141.022 131.237 142.01C130.994 142.98 130.604 143.899 130.067 144.766L128.403 144.038C128.888 143.171 129.226 142.339 129.417 141.542C129.625 140.727 129.729 139.938 129.729 139.176C129.729 137.997 129.538 137.087 129.157 136.446C128.775 135.804 128.264 135.484 127.623 135.484C127.155 135.484 126.791 135.64 126.531 135.952C126.288 136.264 126.167 136.766 126.167 137.46V140.45C126.167 141.576 125.898 142.391 125.361 142.894C124.823 143.396 124.234 143.648 123.593 143.648C123.142 143.648 122.7 143.544 122.267 143.336C121.816 143.128 121.374 142.833 120.941 142.452C120.577 143.058 120.083 143.544 119.459 143.908C118.817 144.272 118.046 144.454 117.145 144.454C116.157 144.454 115.333 144.246 114.675 143.83C114.016 143.396 113.522 142.824 113.193 142.114C112.846 141.403 112.673 140.606 112.673 139.722V139.28C112.673 138.673 112.759 138.118 112.933 137.616V132.988H114.831L114.441 135.796C114.753 135.432 115.143 135.137 115.611 134.912C116.061 134.686 116.616 134.574 117.275 134.574C118.211 134.574 118.999 134.79 119.641 135.224C120.282 135.64 120.776 136.203 121.123 136.914C121.452 137.624 121.617 138.413 121.617 139.28V139.722C121.617 139.947 121.608 140.164 121.591 140.372C121.556 140.58 121.521 140.788 121.487 140.996C122.041 141.498 122.587 141.75 123.125 141.75C123.818 141.75 124.165 141.264 124.165 140.294V137.382C124.165 136.134 124.442 135.154 124.997 134.444C125.551 133.733 126.357 133.378 127.415 133.378ZM119.771 139.28C119.771 138.604 119.554 138.006 119.121 137.486C118.687 136.966 118.029 136.706 117.145 136.706C116.278 136.706 115.628 136.966 115.195 137.486C114.744 138.006 114.519 138.604 114.519 139.28V139.722C114.519 140.415 114.744 141.022 115.195 141.542C115.628 142.062 116.278 142.322 117.145 142.322C118.029 142.322 118.687 142.062 119.121 141.542C119.554 141.022 119.771 140.415 119.771 139.722V139.28ZM114.675 123.978C114.675 124.463 114.796 125.035 115.039 125.694C115.281 126.335 115.775 127.115 116.521 128.034H125.803V130.166H106.563V128.034H114.649C113.886 127.132 113.366 126.318 113.089 125.59C112.811 124.862 112.673 124.151 112.673 123.458C112.673 122.262 113.054 121.352 113.817 120.728C114.562 120.086 115.628 119.766 117.015 119.766H125.803V121.898H117.327C115.559 121.898 114.675 122.591 114.675 123.978Z" fill="#E3DAB7"/>
</svg>
